<svg version="1.2" xmlns="http://www.w3.org/2000/svg" viewBox="0 0 262 262" width="180" height="180">
	<title>owasp-logo-svg</title>
	<style>
		tspan { white-space:pre } 
		.s0 { fill: #000000 } 
		.t1 { font-size: 24px;fill: #000000;font-family: "sans" } 
	</style>
	<g id="g10">
		<g id="g12">
			<path id="path14" fill-rule="evenodd" class="s0" d="m130.8 261.5c-72.3 0-130.8-58.5-130.8-130.7 0-72.3 58.5-130.8 130.8-130.8 72.2 0 130.7 58.5 130.7 130.8 0 72.2-58.5 130.7-130.7 130.7zm-0.1-241.4c-61 0-110.6 49.6-110.6 110.7 0 61.1 49.6 110.6 110.6 110.6 61.1 0 110.7-49.5 110.7-110.6 0-61.1-49.6-110.7-110.7-110.7z"/>
			<path id="path16" class="s0" d="m173.2 223.4c-4.2 0-19.4-27.1-21.5-34.8-4.2-16.2-3.3-23.1-3.1-25.3 0.8-6.6 7.3-10 7.7-19 0.1-2.8 1.5-16.7 2.6-27.6-2.7-0.6-5.5-1.8-7.9-3.7 7.3 9.8-3.5 21.7-19.3 37.5-16.7 16.7-53.9 32.2-53.9 32.2 0 0 15.6-37.1 32.3-53.9 12.3-12.3 22.2-21.6 30.7-21.6 2.4 0 4.6 0.8 6.8 2.4-1.9-2.5-3.2-5.2-3.7-8-10.9 1.1-24.9 2.5-27.6 2.7-9.1 0.4-12.4 6.8-19.1 7.6-0.7 0.1-2.1 0.3-4.2 0.3-3.9 0-10.5-0.6-21-3.4-8.4-2.2-39.7-20-34.2-22.3 2.8-1.1 11.8-1.9 23.7-1.9 11.4 0 25.5 0.7 39.2 2.5 17.1 2.2 32.8 5.1 43.5 7.2q0.2-0.9 0.6-1.7l-10.9-5.3c0 0-8.8-10-7.8-10.7q0 0 0.1 0c1.4 0 8.4 8 9 8.9 0.6 0.2 3.5 1.1 6.6 2.2l-3.1-2.7c0 0-4.2-15.7-3.1-16.1q0 0 0.1 0c1.1 0 5 13.7 5.3 14.6 0.7 0.7 3.3 1.7 6.5 3.5l-3.4-8.6c0 0 1.5-14.2 2.7-14.2q0 0 0 0c1.1 0.2-0.2 11.9-0.5 13.3 0.4 0.6 3 4.6 5.5 8.5 1.6-0.6 3.3-0.9 5.1-0.9 2 0 4.1 0.4 6.1 1.2-2.6-5.5-2.4-11.2 1-14.6 1.1-1.1 2.4-1.8 3.8-2.3 0.2-0.9 0.7-1.9 1.4-2.7 1-0.9 2.3-1.4 3.6-1.4 1.4 0 2.8 0.5 3.9 1.6 1 1 1.5 2.3 1.6 3.6 1.6-3.4 3.6-7.9 3.4-9.4-0.3-3.4-4.2-9.3-4.2-9.4-0.3-0.3-0.2-0.9 0.2-1.1q0.2-0.1 0.5-0.1c0.2 0 0.5 0.1 0.7 0.3 0.1 0.3 4.1 6.4 4.5 10.1 0.2 2.2-2.3 7.6-3.6 10.4 1.8 1 3.7 2.4 5.4 4.1 1.7 1.7 3 3.5 4.1 5.4 2.6-1.3 7.8-3.6 10.1-3.6q0.1 0 0.2 0c3.8 0.3 9.9 4.3 10.1 4.5 0.4 0.2 0.5 0.8 0.3 1.1-0.2 0.3-0.5 0.4-0.7 0.4q-0.3 0-0.5-0.1c0-0.1-6-3.9-9.3-4.3q-0.1 0-0.2 0c-1.6 0-6 1.9-9.3 3.5 1.3 0 2.7 0.6 3.7 1.6 2.1 2.1 2.1 5.4 0.1 7.4-0.7 0.8-1.7 1.2-2.7 1.4-0.4 1.5-1.2 2.8-2.3 3.9-1.8 1.8-4.4 2.7-7.3 2.7-2.3 0-4.8-0.6-7.2-1.7 1.4 3.7 1.5 7.7 0.2 11.1 4 2.6 7.9 5.2 8.6 5.6 1-0.2 7.2-1 10.8-1 1.4 0 2.4 0.1 2.5 0.5 0.2 1.1-14.2 2.6-14.2 2.6l-8.7-3.3c1.9 3.2 2.9 5.7 3.5 6.5 1 0.3 15 4.2 14.6 5.4q-0.1 0.1-0.7 0.1c-3 0-15.3-3.3-15.3-3.3l-2.7-3.1c1 3.1 2 6.1 2.2 6.6 0.9 0.7 9.5 8.2 8.8 9.2q0 0.1-0.1 0.1c-1.6 0-10.6-7.9-10.6-7.9l-5.2-10.9q-0.8 0.3-1.7 0.6c2.1 10.7 4.9 26.4 7.2 43.5 3.6 28 2.8 57.3 0.5 62.9q-0.2 0.6-0.8 0.6z"/>
		</g>
	</g>
	<text id="tspan3769" style="transform: matrix(1,0,0,1,214.246,255.205)" >
		<tspan x="0" y="0" class="t1">™
</tspan>
	</text>
</svg>