<svg xmlns="http://www.w3.org/2000/svg" xmlns:xlink="http://www.w3.org/1999/xlink" width="250" zoomAndPan="magnify" viewBox="0 0 187.5 119.999999" height="160" preserveAspectRatio="xMidYMid meet" version="1.0"><path fill="#cb0538" d="M 123.675781 54.753906 C 123.496094 55.628906 123.300781 56.507812 123.136719 57.394531 C 122.78125 59.332031 122.394531 61.265625 122.117188 63.214844 C 121.9375 64.464844 121.90625 65.738281 121.84375 67.007812 C 121.824219 67.355469 121.738281 67.484375 121.375 67.476562 C 120.386719 67.457031 119.402344 67.460938 118.410156 67.476562 C 118.105469 67.480469 117.992188 67.382812 118.019531 67.070312 C 118.082031 66.34375 118.117188 65.621094 118.109375 64.859375 C 118 65.019531 117.886719 65.175781 117.773438 65.335938 C 116.976562 66.480469 115.953125 67.316406 114.570312 67.636719 C 111.902344 68.253906 109.617188 66.695312 109.269531 63.972656 C 108.679688 59.328125 111.449219 54.148438 117.308594 53.320312 C 119.363281 53.03125 121.375 53.230469 123.367188 53.75 C 123.472656 53.777344 123.574219 53.824219 123.679688 53.867188 L 123.679688 54.753906 Z M 118.0625 56.363281 C 117.46875 56.339844 116.800781 56.53125 116.203125 56.9375 C 114.796875 57.898438 114.042969 59.28125 113.667969 60.890625 C 113.472656 61.726562 113.417969 62.574219 113.746094 63.402344 C 114.023438 64.113281 114.550781 64.429688 115.308594 64.375 C 115.960938 64.328125 116.441406 63.972656 116.863281 63.523438 C 117.613281 62.714844 118.050781 61.730469 118.300781 60.679688 C 118.5625 59.566406 118.746094 58.429688 118.960938 57.304688 C 119.082031 56.691406 118.78125 56.375 118.066406 56.359375 " fill-opacity="1" fill-rule="evenodd"/><path fill="#cb0538" d="M 82.332031 67.429688 C 82.492188 66.582031 82.640625 65.785156 82.789062 64.984375 C 83.136719 63.132812 83.503906 61.28125 83.820312 59.421875 C 83.914062 58.847656 83.925781 58.242188 83.863281 57.664062 C 83.769531 56.808594 83.09375 56.398438 82.253906 56.585938 C 81.5625 56.742188 81.058594 57.171875 80.640625 57.703125 C 79.730469 58.847656 79.324219 60.199219 79.066406 61.609375 C 78.726562 63.449219 78.382812 65.292969 78.046875 67.136719 C 78.007812 67.34375 77.945312 67.472656 77.703125 67.472656 C 76.503906 67.464844 75.300781 67.472656 74.101562 67.464844 C 74.03125 67.464844 73.960938 67.4375 73.835938 67.414062 C 73.894531 67.070312 73.949219 66.734375 74.007812 66.398438 C 74.683594 62.761719 75.367188 59.128906 76.035156 55.496094 C 76.136719 54.9375 76.21875 54.378906 76.285156 53.8125 C 76.3125 53.582031 76.410156 53.492188 76.636719 53.492188 C 77.652344 53.5 78.667969 53.496094 79.679688 53.492188 C 79.914062 53.492188 80.023438 53.554688 79.980469 53.816406 C 79.914062 54.253906 79.878906 54.695312 79.835938 55.140625 C 79.820312 55.296875 79.8125 55.449219 79.804688 55.609375 C 80.320312 55.140625 80.773438 54.65625 81.304688 54.265625 C 82.570312 53.339844 84 53.007812 85.554688 53.265625 C 86.984375 53.503906 87.964844 54.570312 88.199219 56.085938 C 88.390625 57.328125 88.1875 58.546875 87.964844 59.757812 C 87.515625 62.207031 87.035156 64.648438 86.574219 67.097656 C 86.523438 67.363281 86.425781 67.476562 86.144531 67.472656 C 84.992188 67.460938 83.84375 67.472656 82.691406 67.46875 C 82.597656 67.46875 82.5 67.445312 82.332031 67.429688 " fill-opacity="1" fill-rule="evenodd"/><path fill="#cb0538" d="M 71.125 63.628906 C 71.199219 64.410156 71.269531 65.125 71.34375 65.832031 C 71.351562 65.878906 71.347656 65.929688 71.355469 65.976562 C 71.402344 66.6875 71.410156 66.703125 70.75 66.945312 C 68.695312 67.710938 66.578125 68.011719 64.414062 67.582031 C 61.976562 67.101562 60.457031 65.417969 60.195312 62.953125 C 59.898438 60.175781 60.679688 57.730469 62.546875 55.648438 C 64.484375 53.492188 67.839844 52.605469 70.453125 53.550781 C 73.65625 54.707031 73.679688 58.382812 72.277344 59.976562 C 71.53125 60.828125 70.554688 61.285156 69.492188 61.578125 C 67.914062 62.015625 66.296875 62.117188 64.675781 62.09375 C 64.09375 62.082031 64.078125 62.109375 64.21875 62.671875 C 64.449219 63.640625 65.125 64.152344 66.039062 64.363281 C 67.5625 64.722656 69.03125 64.429688 70.472656 63.898438 C 70.667969 63.828125 70.859375 63.738281 71.125 63.628906 M 64.582031 59.078125 C 65.410156 59.019531 66.199219 59.011719 66.976562 58.902344 C 67.523438 58.824219 68.0625 58.660156 68.570312 58.445312 C 69.066406 58.234375 69.296875 57.71875 69.226562 57.230469 C 69.164062 56.777344 68.828125 56.429688 68.285156 56.308594 C 66.335938 55.875 64.792969 57.613281 64.585938 59.078125 " fill-opacity="1" fill-rule="evenodd"/><path fill="#cb0538" d="M 107.085938 56.839844 C 106.75 56.726562 106.449219 56.617188 106.140625 56.535156 C 105.363281 56.324219 104.574219 56.183594 103.765625 56.320312 C 103.582031 56.351562 103.398438 56.402344 103.230469 56.472656 C 102.429688 56.828125 102.285156 57.65625 102.960938 58.21875 C 103.296875 58.503906 103.707031 58.699219 104.082031 58.929688 C 104.671875 59.292969 105.300781 59.605469 105.84375 60.019531 C 107.433594 61.234375 107.703125 62.910156 106.988281 64.691406 C 106.421875 66.097656 105.277344 66.90625 103.878906 67.339844 C 101.738281 68.011719 99.609375 67.90625 97.511719 67.140625 C 97.394531 67.101562 97.28125 67.050781 97.171875 67 C 96.601562 66.730469 96.597656 66.726562 96.796875 66.148438 C 97.03125 65.472656 97.261719 64.800781 97.5 64.128906 C 97.539062 64.015625 97.597656 63.90625 97.636719 63.800781 C 98.300781 64.027344 98.917969 64.273438 99.558594 64.453125 C 100.296875 64.664062 101.050781 64.8125 101.824219 64.667969 C 102.367188 64.566406 102.8125 64.324219 102.960938 63.746094 C 103.105469 63.175781 102.835938 62.753906 102.410156 62.4375 C 102.0625 62.183594 101.667969 61.992188 101.304688 61.761719 C 100.757812 61.417969 100.1875 61.117188 99.691406 60.71875 C 97.644531 59.066406 98.226562 56.597656 99.242188 55.316406 C 99.898438 54.488281 100.757812 53.941406 101.753906 53.625 C 103.714844 52.996094 105.675781 53.042969 107.617188 53.703125 C 108.109375 53.871094 108.101562 53.890625 107.945312 54.359375 C 107.707031 55.0625 107.476562 55.765625 107.238281 56.464844 C 107.195312 56.589844 107.140625 56.707031 107.085938 56.851562 " fill-opacity="1" fill-rule="evenodd"/><path fill="#cb0538" d="M 89.714844 67.40625 C 89.859375 66.648438 89.988281 65.925781 90.125 65.203125 C 90.835938 61.484375 91.546875 57.769531 92.253906 54.050781 C 92.359375 53.496094 92.359375 53.492188 92.902344 53.492188 C 93.953125 53.492188 95.007812 53.492188 96.058594 53.492188 C 96.488281 53.492188 96.511719 53.519531 96.429688 53.941406 C 95.777344 57.394531 95.125 60.84375 94.472656 64.296875 C 94.292969 65.253906 94.101562 66.210938 93.929688 67.167969 C 93.894531 67.375 93.808594 67.472656 93.597656 67.472656 C 92.382812 67.46875 91.171875 67.46875 89.960938 67.460938 C 89.902344 67.460938 89.839844 67.4375 89.71875 67.40625 " fill-opacity="1" fill-rule="evenodd"/><path fill="#3a63a3" d="M 35.921875 55.273438 C 36.027344 54.515625 36.132812 53.769531 36.238281 53.011719 C 36.34375 52.242188 36.453125 51.476562 36.574219 50.707031 C 36.613281 50.441406 36.539062 50.28125 36.273438 50.167969 C 35.261719 49.730469 33.042969 48.71875 32.839844 48.621094 C 33.066406 48.550781 35.597656 47.839844 36.734375 47.546875 C 37.050781 47.46875 37.175781 47.308594 37.230469 47.003906 C 37.472656 45.769531 38.035156 43.105469 38.09375 42.882812 C 38.414062 43.613281 38.6875 44.238281 38.960938 44.863281 C 39.179688 45.367188 39.410156 45.855469 39.605469 46.363281 C 39.699219 46.617188 39.824219 46.660156 40.078125 46.601562 C 41.246094 46.316406 43.695312 45.753906 43.855469 45.722656 C 43.734375 45.898438 41.984375 48.132812 41.160156 49.113281 C 40.90625 49.417969 40.894531 49.667969 41.046875 50.011719 C 41.476562 51.011719 42.339844 53.230469 42.394531 53.40625 C 42.21875 53.332031 40.191406 52.390625 39.292969 51.949219 C 39.058594 51.835938 38.9375 51.863281 38.765625 52.066406 C 37.953125 53.054688 35.957031 55.289062 35.921875 55.277344 " fill-opacity="1" fill-rule="evenodd"/><path fill="#516da7" d="M 37.90625 72.738281 C 37.320312 72.453125 36.738281 72.167969 36.152344 71.882812 C 35.753906 71.6875 35.351562 71.496094 34.960938 71.285156 C 34.746094 71.167969 34.613281 71.203125 34.457031 71.390625 C 33.570312 72.480469 31.613281 74.820312 31.464844 74.867188 C 31.601562 74.070312 31.730469 73.273438 31.867188 72.476562 C 32.003906 71.664062 32.128906 70.847656 32.28125 70.035156 C 32.332031 69.761719 32.25 69.644531 31.996094 69.546875 C 30.953125 69.148438 28.621094 68.207031 28.386719 68.101562 C 28.632812 68.023438 31.210938 67.289062 32.359375 67.003906 C 32.6875 66.917969 32.8125 66.746094 32.871094 66.433594 C 33.105469 65.1875 33.667969 62.496094 33.730469 62.296875 C 34.054688 63.074219 34.351562 63.765625 34.640625 64.453125 C 34.835938 64.921875 35.042969 65.382812 35.226562 65.855469 C 35.316406 66.097656 35.4375 66.164062 35.703125 66.09375 C 36.882812 65.773438 39.390625 65.140625 39.578125 65.109375 C 39.183594 65.589844 37.308594 67.859375 36.683594 68.589844 C 36.519531 68.777344 36.496094 68.929688 36.589844 69.152344 C 37.011719 70.191406 37.929688 72.707031 37.910156 72.734375 " fill-opacity="1" fill-rule="evenodd"/><path fill="#3a63a3" d="M 50.328125 29.398438 C 50.4375 29.660156 50.5625 29.914062 50.652344 30.1875 C 50.746094 30.476562 50.882812 30.554688 51.199219 30.472656 C 52.289062 30.191406 54.691406 29.648438 54.894531 29.613281 C 54.78125 29.78125 53.019531 32.015625 52.191406 33.023438 C 52.003906 33.253906 51.972656 33.441406 52.09375 33.722656 C 52.523438 34.730469 53.429688 37.023438 53.515625 37.253906 C 53.265625 37.136719 51.351562 36.203125 50.566406 35.785156 C 50.335938 35.660156 50.207031 35.695312 50.039062 35.890625 C 49.230469 36.855469 47.308594 39.074219 47.085938 39.199219 C 47.15625 38.675781 47.222656 38.152344 47.292969 37.628906 C 47.4375 36.574219 47.570312 35.527344 47.738281 34.480469 C 47.78125 34.207031 47.6875 34.109375 47.460938 34.015625 C 46.496094 33.613281 44.285156 32.648438 44.152344 32.5 C 44.277344 32.460938 46.820312 31.714844 47.976562 31.394531 C 48.234375 31.320312 48.359375 31.199219 48.417969 30.929688 C 48.664062 29.808594 49.265625 27.324219 49.296875 27.199219 C 49.332031 27.199219 50.019531 28.664062 50.332031 29.402344 " fill-opacity="1" fill-rule="evenodd"/><path fill="#6279ae" d="M 48.238281 103.589844 C 48.316406 103.039062 48.738281 100.226562 48.886719 99.375 C 48.933594 99.109375 48.820312 98.996094 48.601562 98.898438 C 47.671875 98.488281 45.640625 97.554688 45.46875 97.464844 C 45.65625 97.398438 47.960938 96.71875 49.011719 96.441406 C 49.308594 96.363281 49.429688 96.214844 49.484375 95.925781 C 49.699219 94.8125 50.226562 92.410156 50.277344 92.230469 C 50.367188 92.425781 51.179688 94.417969 51.515625 95.304688 C 51.632812 95.617188 51.765625 95.710938 52.113281 95.617188 C 53.121094 95.332031 55.347656 94.808594 55.527344 94.789062 C 54.980469 95.476562 53.355469 97.542969 53.011719 97.9375 C 52.804688 98.179688 52.761719 98.394531 52.890625 98.703125 C 53.265625 99.574219 54.03125 101.589844 54.109375 101.8125 C 53.875 101.710938 52.183594 100.917969 51.492188 100.558594 C 51.246094 100.433594 51.097656 100.46875 50.921875 100.667969 C 50.140625 101.574219 48.257812 103.597656 48.230469 103.589844 " fill-opacity="1" fill-rule="evenodd"/><path fill="#1b599b" d="M 64.691406 19.535156 C 64.925781 20.113281 64.820312 20.03125 65.433594 19.910156 C 66.453125 19.703125 68.648438 19.273438 68.835938 19.253906 C 68.351562 19.808594 66.589844 21.824219 66.121094 22.332031 C 65.941406 22.53125 65.90625 22.710938 66.019531 22.960938 C 66.40625 23.839844 67.257812 25.890625 67.351562 26.121094 C 67.160156 26.046875 65.46875 25.230469 64.75 24.84375 C 64.496094 24.707031 64.351562 24.730469 64.164062 24.960938 C 63.339844 25.960938 61.664062 27.867188 61.382812 28.085938 C 61.441406 27.640625 61.863281 24.648438 62.03125 23.589844 C 62.070312 23.34375 61.992188 23.207031 61.753906 23.109375 C 60.886719 22.757812 58.945312 21.90625 58.734375 21.804688 C 58.949219 21.726562 61.222656 21.046875 62.234375 20.761719 C 62.476562 20.695312 62.597656 20.578125 62.652344 20.320312 C 62.875 19.234375 63.429688 16.867188 63.457031 16.761719 C 63.492188 16.761719 64.59375 19.292969 64.691406 19.53125 " fill-opacity="1" fill-rule="evenodd"/><path fill="#516da7" d="M 33.371094 86.140625 C 33.972656 85.972656 36.25 85.3125 36.789062 85.191406 C 37.0625 85.125 37.167969 84.984375 37.214844 84.722656 C 37.4375 83.558594 37.960938 81.066406 38.011719 80.871094 C 38.296875 81.625 39.066406 83.625 39.164062 83.980469 C 39.246094 84.285156 39.382812 84.351562 39.691406 84.285156 C 40.820312 84.027344 41.957031 83.796875 43.203125 83.53125 C 43.078125 83.714844 41.476562 85.746094 40.726562 86.648438 C 40.554688 86.855469 40.523438 87.03125 40.625 87.28125 C 40.976562 88.148438 41.304688 89.027344 41.640625 89.902344 C 41.695312 90.042969 41.742188 90.195312 41.828125 90.4375 C 41.609375 90.339844 41.488281 90.296875 41.375 90.238281 C 40.652344 89.886719 39.921875 89.546875 39.21875 89.171875 C 38.921875 89.015625 38.753906 89.082031 38.5625 89.320312 C 37.828125 90.25 36.011719 92.355469 35.988281 92.347656 C 36.042969 91.832031 36.378906 88.964844 36.5 88.046875 C 36.535156 87.78125 36.460938 87.617188 36.195312 87.507812 C 35.363281 87.15625 33.371094 86.175781 33.375 86.136719 " fill-opacity="1" fill-rule="evenodd"/><path fill="#1b599b" d="M 77.628906 29.0625 C 77.742188 28.5 78.148438 26.386719 78.265625 25.894531 C 78.320312 25.667969 78.246094 25.554688 78.046875 25.464844 C 77.339844 25.140625 75.726562 24.359375 75.53125 24.253906 C 75.90625 24.132812 77.5625 23.585938 78.125 23.441406 C 78.425781 23.363281 78.539062 23.191406 78.589844 22.914062 C 78.734375 22.136719 79.101562 20.378906 79.160156 20.179688 C 79.257812 20.363281 79.933594 21.839844 80.199219 22.480469 C 80.289062 22.691406 80.402344 22.765625 80.652344 22.710938 C 81.449219 22.546875 83.273438 22.25 83.476562 22.230469 C 83.15625 22.613281 82.890625 22.933594 82.625 23.246094 C 82.21875 23.726562 81.816406 24.207031 81.402344 24.683594 C 81.257812 24.84375 81.238281 24.988281 81.316406 25.179688 C 81.574219 25.832031 82.152344 27.398438 82.222656 27.617188 C 82.011719 27.535156 80.804688 26.964844 80.332031 26.695312 C 80.089844 26.558594 79.949219 26.585938 79.769531 26.796875 C 79.167969 27.5 77.660156 29.078125 77.632812 29.066406 " fill-opacity="1" fill-rule="evenodd"/><path fill="#7385b5" d="M 62.964844 95.449219 C 63.714844 95.238281 64.449219 95.003906 65.207031 94.824219 C 65.585938 94.738281 65.761719 94.550781 65.839844 94.175781 C 66.015625 93.34375 66.242188 92.53125 66.476562 91.585938 C 66.578125 91.777344 67.207031 93.171875 67.441406 93.78125 C 67.546875 94.058594 67.695312 94.121094 67.96875 94.0625 C 68.660156 93.921875 70.257812 93.640625 70.457031 93.617188 C 70.335938 93.78125 69.121094 95.257812 68.570312 95.886719 C 68.414062 96.0625 68.40625 96.214844 68.492188 96.421875 C 68.765625 97.066406 69.351562 98.546875 69.417969 98.742188 C 68.835938 98.464844 68.339844 98.234375 67.847656 97.992188 C 67.164062 97.660156 67.164062 97.65625 66.6875 98.234375 C 66.183594 98.839844 65.003906 100.199219 64.96875 100.171875 C 65.050781 99.496094 65.125 98.816406 65.210938 98.136719 C 65.257812 97.710938 65.332031 97.277344 65.34375 96.851562 C 65.347656 96.734375 65.207031 96.550781 65.085938 96.496094 C 64.472656 96.199219 62.964844 95.480469 62.964844 95.449219 " fill-opacity="1" fill-rule="evenodd"/><path fill="#035092" d="M 89.472656 31.65625 C 89.582031 31.925781 89.714844 32 89.996094 31.941406 C 90.789062 31.773438 91.589844 31.632812 92.449219 31.558594 C 92.355469 31.683594 91.171875 33.109375 90.664062 33.683594 C 90.503906 33.863281 90.480469 34.027344 90.566406 34.25 C 90.816406 34.90625 91.382812 36.46875 91.460938 36.695312 C 90.914062 36.433594 89.824219 35.90625 89.683594 35.835938 C 89.308594 35.632812 89.105469 35.699219 88.851562 36.007812 C 88.355469 36.621094 87.285156 37.738281 87.070312 37.925781 C 87.125 37.527344 87.179688 37.125 87.234375 36.726562 C 87.320312 36.117188 87.402344 35.503906 87.511719 34.898438 C 87.558594 34.625 87.476562 34.5 87.226562 34.394531 C 86.597656 34.136719 85.140625 33.476562 84.945312 33.378906 C 85.335938 33.253906 86.980469 32.746094 87.511719 32.628906 C 87.839844 32.558594 87.976562 32.398438 88.023438 32.070312 C 88.136719 31.304688 88.445312 29.640625 88.464844 29.574219 C 88.496094 29.570312 89.183594 30.949219 89.472656 31.652344 " fill-opacity="1" fill-rule="evenodd"/><path fill="#8794c1" d="M 77.117188 91.503906 C 77.207031 90.914062 77.292969 90.320312 77.382812 89.726562 C 77.433594 89.386719 77.484375 89.042969 77.550781 88.707031 C 77.605469 88.441406 77.535156 88.273438 77.265625 88.15625 C 76.699219 87.914062 75.332031 87.242188 75.117188 87.132812 C 75.953125 86.882812 76.714844 86.683594 77.441406 86.449219 C 77.808594 86.355469 77.960938 86.167969 78.027344 85.808594 C 78.214844 85.035156 78.355469 84.273438 78.613281 83.488281 C 78.726562 83.742188 79.324219 85.078125 79.488281 85.503906 C 79.585938 85.746094 79.730469 85.800781 79.976562 85.738281 C 80.640625 85.582031 82.132812 85.285156 82.3125 85.265625 C 82.011719 85.648438 81.773438 85.972656 81.523438 86.285156 C 81.207031 86.695312 80.886719 87.105469 80.554688 87.503906 C 80.402344 87.683594 80.375 87.851562 80.472656 88.078125 C 80.738281 88.660156 81.292969 90.023438 81.351562 90.203125 C 80.742188 89.933594 80.203125 89.707031 79.667969 89.464844 C 79.121094 89.214844 79.121094 89.210938 78.734375 89.675781 C 78.332031 90.15625 77.132812 91.519531 77.109375 91.507812 " fill-opacity="1" fill-rule="evenodd"/><path fill="#035092" d="M 94.3125 48.742188 C 93.785156 48.5 93.25 48.269531 92.738281 48.003906 C 92.34375 47.800781 92.246094 48.121094 91.632812 48.800781 C 91.371094 49.089844 90.582031 49.875 90.554688 49.847656 C 90.605469 49.441406 90.835938 47.773438 90.910156 47.351562 C 90.964844 47.050781 90.886719 46.867188 90.574219 46.765625 C 90.042969 46.558594 88.867188 46.070312 88.6875 45.976562 C 89.460938 45.75 90.171875 45.554688 90.824219 45.347656 C 91.113281 45.253906 91.347656 45.039062 91.410156 44.742188 C 91.554688 44.066406 91.738281 43.402344 91.902344 42.734375 C 91.972656 42.890625 92.519531 43.910156 92.785156 44.515625 C 92.859375 44.691406 93.058594 44.785156 93.25 44.738281 C 93.941406 44.550781 94.613281 44.359375 95.285156 44.175781 C 95.179688 44.351562 94.222656 45.648438 94.078125 45.828125 C 93.65625 46.359375 93.675781 46.632812 93.855469 47.199219 C 94.007812 47.695312 94.226562 48.59375 94.308594 48.742188 " fill-opacity="1" fill-rule="evenodd"/><path fill="#99a6ca" d="M 84.761719 79.082031 C 84.824219 78.535156 84.878906 77.992188 84.953125 77.453125 C 85.101562 76.429688 85.097656 76.425781 84.128906 75.996094 C 83.71875 75.816406 83.425781 75.644531 83 75.402344 C 83.671875 75.210938 84.371094 75.035156 85.023438 74.839844 C 85.351562 74.757812 85.496094 74.605469 85.574219 74.265625 C 85.730469 73.574219 85.824219 72.9375 86.027344 72.261719 C 86.273438 72.839844 86.535156 73.402344 86.753906 73.988281 C 86.867188 74.277344 87 74.351562 87.308594 74.269531 C 87.914062 74.113281 88.527344 73.992188 89.1875 73.9375 C 89.078125 74.085938 88.191406 75.226562 87.851562 75.628906 C 87.675781 75.828125 87.699219 76.015625 87.78125 76.242188 C 87.996094 76.839844 88.203125 77.445312 88.445312 78.144531 C 88.242188 78.070312 87.167969 77.609375 86.75 77.390625 C 86.5 77.257812 86.351562 77.324219 86.1875 77.527344 C 85.757812 78.066406 84.796875 79.097656 84.757812 79.085938 " fill-opacity="1" fill-rule="evenodd"/><path fill="#003399" d="M 134.566406 53.292969 L 155.453125 53.292969 L 155.453125 67.753906 L 134.566406 67.753906 Z M 134.566406 53.292969 " fill-opacity="1" fill-rule="nonzero"/><path fill="#ffcc00" d="M 150.195312 61.222656 L 149.730469 60.878906 L 149.246094 61.21875 L 149.433594 60.671875 L 148.953125 60.316406 L 149.535156 60.324219 L 149.726562 59.765625 L 149.894531 60.316406 L 150.492188 60.324219 L 150.015625 60.65625 Z M 150.195312 61.222656 " fill-opacity="1" fill-rule="nonzero"/><path fill="#ffcc00" d="M 149.726562 59.714844 L 149.523438 60.3125 L 148.90625 60.304688 L 149.414062 60.675781 L 149.214844 61.257812 L 149.730469 60.894531 L 150.226562 61.261719 L 150.210938 61.21875 L 150.035156 60.664062 L 150.542969 60.308594 L 149.90625 60.304688 Z M 149.535156 60.324219 L 149.726562 59.765625 L 149.894531 60.316406 L 150.492188 60.324219 L 150.011719 60.65625 L 150.191406 61.226562 L 149.726562 60.878906 L 149.242188 61.222656 L 149.429688 60.675781 L 148.949219 60.324219 L 149.53125 60.332031 Z M 150.195312 61.222656 L 150.210938 61.222656 C 150.210938 61.222656 150.195312 61.222656 150.195312 61.222656 Z M 150.195312 61.222656 " fill-opacity="1" fill-rule="nonzero"/><path fill="#ffcc00" d="M 149.726562 59.765625 L 149.535156 60.324219 L 148.953125 60.316406 L 149.433594 60.671875 L 149.246094 61.21875 L 149.730469 60.875 L 150.195312 61.222656 L 150.015625 60.65625 L 150.492188 60.320312 L 149.898438 60.316406 L 149.726562 59.761719 Z M 149.546875 60.339844 L 149.722656 59.8125 L 149.882812 60.332031 L 150.445312 60.332031 C 150.445312 60.332031 149.996094 60.652344 149.996094 60.652344 L 150.167969 61.1875 L 149.726562 60.859375 L 149.273438 61.183594 L 149.449219 60.667969 L 149 60.332031 L 149.542969 60.339844 Z M 149.546875 60.339844 " fill-opacity="1" fill-rule="nonzero"/><path fill="#ffcc00" d="M 149.566406 58.878906 L 149.101562 58.53125 L 148.613281 58.875 L 148.804688 58.324219 L 148.324219 57.972656 L 148.90625 57.980469 L 149.09375 57.417969 L 149.265625 57.972656 L 149.863281 57.976562 L 149.390625 58.308594 Z M 149.566406 58.878906 " fill-opacity="1" fill-rule="nonzero"/><path fill="#ffcc00" d="M 149.097656 57.367188 L 148.894531 57.964844 L 148.277344 57.957031 L 148.785156 58.328125 L 148.589844 58.914062 L 149.101562 58.546875 L 149.59375 58.914062 L 149.585938 58.875 L 149.40625 58.316406 L 149.910156 57.960938 L 149.28125 57.957031 Z M 148.90625 57.980469 L 149.09375 57.417969 L 149.265625 57.972656 L 149.859375 57.976562 L 149.382812 58.308594 L 149.5625 58.882812 L 149.097656 58.53125 L 148.609375 58.878906 L 148.800781 58.328125 L 148.320312 57.976562 L 148.898438 57.988281 Z M 149.566406 58.878906 L 149.585938 58.878906 C 149.585938 58.878906 149.566406 58.878906 149.566406 58.878906 Z M 149.566406 58.878906 " fill-opacity="1" fill-rule="nonzero"/><path fill="#ffcc00" d="M 149.097656 57.417969 L 148.90625 57.980469 L 148.324219 57.972656 L 148.804688 58.324219 L 148.613281 58.875 L 149.101562 58.527344 L 149.566406 58.878906 L 149.390625 58.308594 L 149.867188 57.976562 L 149.269531 57.96875 L 149.101562 57.414062 Z M 148.914062 57.996094 L 149.09375 57.464844 L 149.253906 57.988281 L 149.816406 57.988281 C 149.816406 57.988281 149.371094 58.308594 149.371094 58.308594 L 149.535156 58.839844 L 149.101562 58.511719 L 148.644531 58.835938 L 148.820312 58.320312 L 148.367188 57.988281 L 148.910156 57.996094 Z M 148.914062 57.996094 " fill-opacity="1" fill-rule="nonzero"/><path fill="#ffcc00" d="M 147.894531 57.183594 L 147.429688 56.835938 L 146.941406 57.179688 L 147.132812 56.632812 L 146.652344 56.28125 L 147.234375 56.289062 L 147.421875 55.722656 L 147.59375 56.277344 L 148.1875 56.285156 L 147.714844 56.617188 Z M 147.894531 57.183594 " fill-opacity="1" fill-rule="nonzero"/><path fill="#ffcc00" d="M 147.421875 55.679688 L 147.222656 56.273438 L 146.601562 56.265625 L 147.113281 56.636719 L 146.914062 57.21875 L 147.429688 56.855469 L 147.921875 57.226562 L 147.910156 57.183594 L 147.734375 56.625 L 148.238281 56.273438 L 147.605469 56.265625 Z M 147.234375 56.289062 L 147.421875 55.722656 L 147.59375 56.277344 L 148.1875 56.285156 L 147.714844 56.617188 L 147.894531 57.1875 L 147.429688 56.835938 L 146.941406 57.183594 L 147.132812 56.636719 L 146.652344 56.285156 L 147.230469 56.292969 Z M 147.894531 57.183594 L 147.910156 57.183594 C 147.910156 57.183594 147.894531 57.183594 147.894531 57.183594 Z M 147.894531 57.183594 " fill-opacity="1" fill-rule="nonzero"/><path fill="#ffcc00" d="M 147.421875 55.722656 L 147.234375 56.289062 L 146.652344 56.277344 L 147.132812 56.632812 L 146.941406 57.179688 L 147.429688 56.832031 L 147.894531 57.183594 L 147.714844 56.613281 L 148.191406 56.28125 L 147.597656 56.273438 L 147.425781 55.71875 Z M 147.242188 56.304688 L 147.417969 55.769531 L 147.578125 56.292969 L 148.140625 56.292969 C 148.140625 56.292969 147.695312 56.609375 147.695312 56.609375 L 147.863281 57.144531 L 147.425781 56.816406 L 146.96875 57.140625 L 147.148438 56.625 L 146.691406 56.292969 Z M 147.242188 56.304688 " fill-opacity="1" fill-rule="nonzero"/><path fill="#ffcc00" d="M 145.539062 56.53125 L 145.074219 56.1875 L 144.589844 56.527344 L 144.777344 55.980469 L 144.296875 55.625 L 144.878906 55.632812 L 145.070312 55.074219 L 145.238281 55.625 L 145.835938 55.628906 L 145.359375 55.964844 Z M 145.539062 56.53125 " fill-opacity="1" fill-rule="nonzero"/><path fill="#ffcc00" d="M 145.070312 55.019531 L 144.867188 55.617188 L 144.25 55.609375 L 144.757812 55.984375 L 144.5625 56.566406 L 145.074219 56.203125 L 145.570312 56.570312 L 145.554688 56.527344 L 145.378906 55.972656 L 145.882812 55.613281 L 145.253906 55.609375 Z M 144.878906 55.632812 L 145.070312 55.074219 L 145.238281 55.625 L 145.835938 55.628906 L 145.359375 55.964844 L 145.539062 56.535156 L 145.074219 56.1875 L 144.589844 56.53125 L 144.777344 55.980469 L 144.296875 55.628906 L 144.878906 55.636719 Z M 145.539062 56.53125 L 145.554688 56.53125 C 145.554688 56.53125 145.539062 56.53125 145.539062 56.53125 Z M 145.539062 56.53125 " fill-opacity="1" fill-rule="nonzero"/><path fill="#ffcc00" d="M 145.070312 55.074219 L 144.878906 55.632812 L 144.296875 55.625 L 144.777344 55.980469 L 144.589844 56.527344 L 145.074219 56.183594 L 145.539062 56.53125 L 145.359375 55.960938 L 145.839844 55.628906 L 145.242188 55.621094 L 145.074219 55.070312 Z M 144.890625 55.648438 L 145.066406 55.117188 L 145.226562 55.640625 L 145.785156 55.640625 C 145.785156 55.640625 145.34375 55.960938 145.34375 55.960938 L 145.507812 56.496094 L 145.074219 56.167969 L 144.613281 56.492188 L 144.792969 55.976562 L 144.339844 55.640625 L 144.886719 55.648438 Z M 144.890625 55.648438 " fill-opacity="1" fill-rule="nonzero"/><path fill="#ffcc00" d="M 143.210938 57.160156 L 142.746094 56.8125 L 142.261719 57.160156 L 142.449219 56.605469 L 141.96875 56.253906 L 142.550781 56.265625 L 142.738281 55.699219 L 142.910156 56.253906 L 143.507812 56.257812 L 143.035156 56.59375 Z M 143.210938 57.160156 " fill-opacity="1" fill-rule="nonzero"/><path fill="#ffcc00" d="M 142.742188 55.652344 L 142.539062 56.25 L 141.921875 56.238281 L 142.429688 56.613281 L 142.234375 57.195312 L 142.75 56.828125 L 143.242188 57.203125 L 143.230469 57.160156 L 143.050781 56.601562 L 143.554688 56.246094 L 142.925781 56.238281 Z M 142.550781 56.265625 L 142.738281 55.699219 L 142.910156 56.253906 L 143.503906 56.261719 L 143.03125 56.597656 L 143.210938 57.164062 L 142.746094 56.8125 L 142.257812 57.160156 L 142.449219 56.613281 L 141.96875 56.261719 L 142.546875 56.273438 Z M 143.210938 57.160156 L 143.230469 57.160156 C 143.230469 57.160156 143.210938 57.160156 143.210938 57.160156 Z M 143.210938 57.160156 " fill-opacity="1" fill-rule="nonzero"/><path fill="#ffcc00" d="M 142.738281 55.699219 L 142.550781 56.261719 L 141.96875 56.253906 L 142.449219 56.605469 L 142.257812 57.15625 L 142.746094 56.808594 L 143.210938 57.160156 L 143.03125 56.589844 L 143.507812 56.253906 L 142.910156 56.25 L 142.742188 55.699219 Z M 142.558594 56.277344 L 142.738281 55.746094 L 142.898438 56.269531 L 143.460938 56.269531 C 143.460938 56.269531 143.015625 56.585938 143.015625 56.585938 L 143.179688 57.121094 L 142.746094 56.792969 L 142.289062 57.117188 L 142.464844 56.601562 L 142.011719 56.269531 L 142.554688 56.277344 Z M 142.558594 56.277344 " fill-opacity="1" fill-rule="nonzero"/><path fill="#ffcc00" d="M 141.464844 58.851562 L 140.996094 58.507812 L 140.511719 58.847656 L 140.699219 58.304688 L 140.222656 57.949219 L 140.800781 57.957031 L 140.992188 57.394531 L 141.164062 57.945312 L 141.761719 57.953125 L 141.285156 58.289062 Z M 141.464844 58.851562 " fill-opacity="1" fill-rule="nonzero"/><path fill="#ffcc00" d="M 140.992188 57.34375 L 140.792969 57.941406 L 140.175781 57.929688 L 140.683594 58.308594 L 140.484375 58.886719 L 140.996094 58.519531 L 141.488281 58.894531 L 141.480469 58.847656 L 141.300781 58.292969 L 141.808594 57.9375 L 141.175781 57.929688 Z M 140.800781 57.957031 L 140.992188 57.394531 L 141.164062 57.945312 L 141.757812 57.953125 L 141.28125 58.289062 L 141.460938 58.855469 L 140.992188 58.507812 L 140.507812 58.851562 L 140.699219 58.308594 L 140.214844 57.953125 L 140.796875 57.960938 Z M 141.464844 58.851562 L 141.480469 58.851562 C 141.480469 58.851562 141.464844 58.851562 141.464844 58.851562 Z M 141.464844 58.851562 " fill-opacity="1" fill-rule="nonzero"/><path fill="#ffcc00" d="M 140.992188 57.394531 L 140.800781 57.957031 L 140.21875 57.945312 L 140.699219 58.304688 L 140.511719 58.847656 L 140.996094 58.503906 L 141.464844 58.851562 L 141.285156 58.285156 L 141.761719 57.949219 L 141.167969 57.941406 L 140.992188 57.390625 Z M 140.8125 57.972656 L 140.992188 57.4375 L 141.152344 57.960938 L 141.710938 57.960938 C 141.710938 57.960938 141.265625 58.28125 141.265625 58.28125 L 141.433594 58.8125 L 140.992188 58.488281 L 140.539062 58.8125 L 140.714844 58.296875 L 140.265625 57.960938 L 140.808594 57.972656 Z M 140.8125 57.972656 " fill-opacity="1" fill-rule="nonzero"/><path fill="#ffcc00" d="M 140.832031 61.199219 L 140.371094 60.851562 L 139.882812 61.195312 L 140.070312 60.648438 L 139.589844 60.296875 L 140.175781 60.304688 L 140.363281 59.738281 L 140.53125 60.292969 L 141.128906 60.300781 L 140.65625 60.632812 Z M 140.832031 61.199219 " fill-opacity="1" fill-rule="nonzero"/><path fill="#ffcc00" d="M 140.363281 59.691406 L 140.160156 60.289062 L 139.542969 60.277344 L 140.050781 60.652344 L 139.855469 61.230469 L 140.371094 60.867188 L 140.863281 61.238281 L 140.851562 61.195312 L 140.671875 60.636719 L 141.179688 60.285156 L 140.546875 60.277344 Z M 140.175781 60.304688 L 140.363281 59.738281 L 140.53125 60.292969 L 141.128906 60.300781 L 140.65625 60.632812 L 140.832031 61.203125 L 140.371094 60.851562 L 139.882812 61.199219 L 140.070312 60.652344 L 139.589844 60.300781 L 140.171875 60.308594 Z M 140.832031 61.199219 L 140.851562 61.199219 C 140.851562 61.199219 140.832031 61.199219 140.832031 61.199219 Z M 140.832031 61.199219 " fill-opacity="1" fill-rule="nonzero"/><path fill="#ffcc00" d="M 140.363281 59.738281 L 140.175781 60.304688 L 139.589844 60.292969 L 140.070312 60.648438 L 139.882812 61.195312 L 140.371094 60.847656 L 140.832031 61.199219 L 140.65625 60.628906 L 141.132812 60.296875 L 140.535156 60.289062 L 140.367188 59.734375 Z M 140.183594 60.316406 L 140.359375 59.785156 L 140.519531 60.308594 L 141.082031 60.308594 C 141.082031 60.308594 140.636719 60.625 140.636719 60.625 L 140.800781 61.160156 L 140.367188 60.832031 L 139.910156 61.160156 L 140.085938 60.640625 L 139.632812 60.308594 L 140.179688 60.316406 Z M 140.183594 60.316406 " fill-opacity="1" fill-rule="nonzero"/><path fill="#ffcc00" d="M 141.464844 63.59375 L 140.996094 63.246094 L 140.511719 63.59375 L 140.699219 63.042969 L 140.222656 62.6875 L 140.800781 62.699219 L 140.992188 62.132812 L 141.164062 62.6875 L 141.761719 62.691406 L 141.285156 63.023438 Z M 141.464844 63.59375 " fill-opacity="1" fill-rule="nonzero"/><path fill="#ffcc00" d="M 140.992188 62.085938 L 140.792969 62.683594 L 140.175781 62.671875 L 140.683594 63.046875 L 140.484375 63.628906 L 140.996094 63.261719 L 141.488281 63.632812 L 141.480469 63.59375 L 141.300781 63.035156 L 141.808594 62.679688 L 141.175781 62.671875 Z M 140.800781 62.699219 L 140.992188 62.132812 L 141.164062 62.6875 L 141.757812 62.695312 L 141.28125 63.027344 L 141.460938 63.597656 L 140.992188 63.246094 L 140.507812 63.59375 L 140.699219 63.046875 L 140.214844 62.695312 L 140.796875 62.707031 Z M 141.464844 63.59375 L 141.480469 63.59375 C 141.480469 63.59375 141.464844 63.59375 141.464844 63.59375 Z M 141.464844 63.59375 " fill-opacity="1" fill-rule="nonzero"/><path fill="#ffcc00" d="M 140.992188 62.132812 L 140.800781 62.699219 L 140.21875 62.6875 L 140.699219 63.042969 L 140.511719 63.59375 L 140.996094 63.246094 L 141.464844 63.59375 L 141.285156 63.023438 L 141.761719 62.691406 L 141.167969 62.6875 Z M 140.8125 62.714844 L 140.992188 62.183594 L 141.152344 62.707031 L 141.710938 62.707031 C 141.710938 62.707031 141.265625 63.023438 141.265625 63.023438 L 141.433594 63.558594 L 140.992188 63.226562 L 140.539062 63.554688 L 140.714844 63.039062 L 140.265625 62.707031 L 140.808594 62.714844 Z M 140.8125 62.714844 " fill-opacity="1" fill-rule="nonzero"/><path fill="#ffcc00" d="M 143.160156 65.332031 L 142.695312 64.988281 L 142.210938 65.332031 L 142.398438 64.785156 L 141.917969 64.429688 L 142.5 64.4375 L 142.691406 63.875 L 142.859375 64.429688 L 143.457031 64.433594 L 142.980469 64.769531 Z M 143.160156 65.332031 " fill-opacity="1" fill-rule="nonzero"/><path fill="#ffcc00" d="M 142.691406 63.828125 L 142.488281 64.425781 L 141.875 64.414062 L 142.378906 64.789062 L 142.183594 65.367188 L 142.695312 65.003906 L 143.191406 65.375 L 143.175781 65.332031 L 143 64.777344 L 143.507812 64.421875 L 142.875 64.414062 Z M 142.5 64.4375 L 142.691406 63.875 L 142.859375 64.429688 L 143.457031 64.433594 L 142.980469 64.769531 L 143.160156 65.335938 L 142.695312 64.988281 L 142.210938 65.332031 L 142.398438 64.789062 L 141.917969 64.433594 L 142.5 64.445312 Z M 143.160156 65.332031 L 143.175781 65.332031 C 143.175781 65.332031 143.160156 65.332031 143.160156 65.332031 Z M 143.160156 65.332031 " fill-opacity="1" fill-rule="nonzero"/><path fill="#ffcc00" d="M 142.691406 63.875 L 142.5 64.4375 L 141.917969 64.429688 L 142.398438 64.785156 L 142.210938 65.332031 L 142.695312 64.984375 L 143.160156 65.332031 L 142.980469 64.765625 L 143.460938 64.429688 L 142.863281 64.429688 L 142.695312 63.871094 Z M 142.511719 64.453125 L 142.6875 63.925781 L 142.847656 64.445312 L 143.410156 64.445312 C 143.410156 64.445312 142.964844 64.761719 142.964844 64.761719 L 143.132812 65.296875 L 142.695312 64.96875 L 142.238281 65.296875 L 142.414062 64.777344 L 141.964844 64.445312 L 142.507812 64.453125 Z M 142.511719 64.453125 " fill-opacity="1" fill-rule="nonzero"/><path fill="#ffcc00" d="M 145.515625 65.964844 L 145.050781 65.617188 L 144.5625 65.960938 L 144.753906 65.414062 L 144.273438 65.058594 L 144.855469 65.070312 L 145.042969 64.503906 L 145.214844 65.058594 L 145.8125 65.0625 L 145.335938 65.398438 Z M 145.515625 65.964844 " fill-opacity="1" fill-rule="nonzero"/><path fill="#ffcc00" d="M 145.042969 64.457031 L 144.84375 65.054688 L 144.222656 65.042969 L 144.734375 65.417969 L 144.535156 66 L 145.050781 65.632812 L 145.542969 66.007812 L 145.53125 65.960938 L 145.355469 65.40625 L 145.859375 65.050781 L 145.226562 65.042969 Z M 144.855469 65.070312 L 145.042969 64.507812 L 145.214844 65.058594 L 145.808594 65.066406 L 145.332031 65.402344 L 145.511719 65.96875 L 145.046875 65.621094 L 144.5625 65.964844 L 144.75 65.417969 L 144.269531 65.066406 L 144.847656 65.074219 Z M 145.515625 65.964844 L 145.53125 65.964844 C 145.53125 65.964844 145.515625 65.964844 145.515625 65.964844 Z M 145.515625 65.964844 " fill-opacity="1" fill-rule="nonzero"/><path fill="#ffcc00" d="M 145.042969 64.503906 L 144.855469 65.066406 L 144.273438 65.054688 L 144.753906 65.414062 L 144.5625 65.957031 L 145.050781 65.613281 L 145.515625 65.960938 L 145.335938 65.394531 L 145.8125 65.058594 L 145.21875 65.054688 L 145.046875 64.5 Z M 144.863281 65.085938 L 145.039062 64.550781 L 145.199219 65.074219 L 145.765625 65.074219 C 145.765625 65.074219 145.316406 65.394531 145.316406 65.394531 L 145.484375 65.929688 L 145.046875 65.601562 L 144.59375 65.925781 L 144.769531 65.410156 L 144.3125 65.074219 Z M 144.863281 65.085938 " fill-opacity="1" fill-rule="nonzero"/><path fill="#ffcc00" d="M 147.867188 65.332031 L 147.402344 64.988281 L 146.917969 65.332031 L 147.105469 64.785156 L 146.625 64.429688 L 147.207031 64.4375 L 147.398438 63.875 L 147.566406 64.429688 L 148.164062 64.433594 L 147.6875 64.769531 Z M 147.867188 65.332031 " fill-opacity="1" fill-rule="nonzero"/><path fill="#ffcc00" d="M 147.398438 63.828125 L 147.195312 64.425781 L 146.578125 64.414062 L 147.085938 64.789062 L 146.886719 65.367188 L 147.402344 65.003906 L 147.898438 65.375 L 147.882812 65.332031 L 147.707031 64.777344 L 148.214844 64.421875 L 147.578125 64.414062 Z M 147.207031 64.4375 L 147.398438 63.875 L 147.566406 64.429688 L 148.164062 64.433594 L 147.6875 64.769531 L 147.867188 65.335938 L 147.402344 64.988281 L 146.917969 65.332031 L 147.105469 64.789062 L 146.625 64.433594 L 147.207031 64.445312 Z M 147.867188 65.332031 L 147.882812 65.332031 C 147.882812 65.332031 147.867188 65.332031 147.867188 65.332031 Z M 147.867188 65.332031 " fill-opacity="1" fill-rule="nonzero"/><path fill="#ffcc00" d="M 147.398438 63.875 L 147.207031 64.4375 L 146.625 64.429688 L 147.105469 64.785156 L 146.917969 65.332031 L 147.402344 64.984375 L 147.867188 65.332031 L 147.6875 64.765625 L 148.164062 64.429688 L 147.570312 64.429688 L 147.402344 63.871094 Z M 147.21875 64.453125 L 147.394531 63.925781 L 147.554688 64.445312 L 148.117188 64.445312 C 148.117188 64.445312 147.667969 64.761719 147.667969 64.761719 L 147.835938 65.296875 L 147.402344 64.96875 L 146.945312 65.296875 L 147.121094 64.777344 L 146.667969 64.445312 L 147.214844 64.453125 Z M 147.21875 64.453125 " fill-opacity="1" fill-rule="nonzero"/><path fill="#ffcc00" d="M 149.613281 63.59375 L 149.148438 63.246094 L 148.664062 63.59375 L 148.851562 63.042969 L 148.375 62.6875 L 148.953125 62.699219 L 149.140625 62.132812 L 149.3125 62.6875 L 149.910156 62.691406 L 149.433594 63.023438 Z M 149.613281 63.59375 " fill-opacity="1" fill-rule="nonzero"/><path fill="#ffcc00" d="M 149.140625 62.085938 L 148.941406 62.683594 L 148.324219 62.671875 L 148.832031 63.046875 L 148.632812 63.628906 L 149.148438 63.261719 L 149.640625 63.632812 L 149.628906 63.59375 L 149.453125 63.035156 L 149.957031 62.679688 L 149.324219 62.671875 Z M 148.953125 62.699219 L 149.140625 62.132812 L 149.3125 62.6875 L 149.90625 62.695312 L 149.433594 63.027344 L 149.613281 63.597656 L 149.148438 63.246094 L 148.664062 63.59375 L 148.851562 63.046875 L 148.371094 62.695312 L 148.949219 62.707031 Z M 149.613281 63.59375 L 149.628906 63.59375 C 149.628906 63.59375 149.613281 63.59375 149.613281 63.59375 Z M 149.613281 63.59375 " fill-opacity="1" fill-rule="nonzero"/><path fill="#ffcc00" d="M 149.140625 62.132812 L 148.953125 62.699219 L 148.371094 62.6875 L 148.851562 63.042969 L 148.664062 63.59375 L 149.148438 63.246094 L 149.613281 63.59375 L 149.433594 63.023438 L 149.910156 62.691406 L 149.316406 62.6875 L 149.144531 62.132812 Z M 148.964844 62.714844 L 149.140625 62.183594 L 149.300781 62.707031 L 149.867188 62.707031 C 149.867188 62.707031 149.417969 63.023438 149.417969 63.023438 L 149.585938 63.558594 L 149.148438 63.226562 L 148.695312 63.554688 L 148.871094 63.039062 L 148.414062 62.707031 Z M 148.964844 62.714844 " fill-opacity="1" fill-rule="nonzero"/><path fill="#9d9c9c" d="M 152.921875 93.269531 L 152.300781 93.269531 L 153.917969 96.265625 L 153.917969 98.121094 L 154.492188 98.121094 L 154.492188 96.238281 L 156.121094 93.269531 L 155.507812 93.269531 L 154.210938 95.695312 Z M 150.355469 93.769531 L 151.894531 93.769531 L 151.894531 93.269531 L 148.25 93.269531 L 148.25 93.769531 L 149.789062 93.769531 L 149.789062 98.121094 L 150.355469 98.121094 Z M 147.511719 93.269531 L 146.949219 93.269531 L 146.949219 98.121094 L 147.511719 98.121094 Z M 143.324219 93.765625 L 144.058594 93.765625 C 144.476562 93.765625 144.78125 93.835938 144.96875 93.976562 C 145.160156 94.121094 145.253906 94.347656 145.253906 94.667969 C 145.253906 94.992188 145.164062 95.226562 144.976562 95.382812 C 144.792969 95.539062 144.5 95.621094 144.097656 95.621094 L 143.324219 95.621094 Z M 144.339844 96.101562 L 145.519531 98.121094 L 146.1875 98.121094 L 144.867188 95.9375 C 145.519531 95.714844 145.84375 95.28125 145.84375 94.636719 C 145.84375 94.183594 145.699219 93.835938 145.414062 93.609375 C 145.128906 93.382812 144.691406 93.265625 144.09375 93.265625 L 142.757812 93.265625 L 142.757812 98.117188 L 143.324219 98.117188 L 143.324219 96.097656 L 144.335938 96.097656 Z M 140.984375 93.269531 L 140.984375 96.429688 C 140.984375 96.839844 140.871094 97.148438 140.652344 97.363281 C 140.429688 97.582031 140.113281 97.695312 139.703125 97.695312 C 139.292969 97.695312 138.945312 97.585938 138.726562 97.367188 C 138.503906 97.152344 138.394531 96.84375 138.394531 96.4375 L 138.394531 93.269531 L 137.832031 93.269531 L 137.832031 96.394531 C 137.832031 96.949219 137.992188 97.390625 138.3125 97.710938 C 138.632812 98.027344 139.082031 98.183594 139.667969 98.183594 C 140.253906 98.183594 140.710938 98.027344 141.050781 97.710938 C 141.382812 97.394531 141.554688 96.957031 141.554688 96.40625 L 141.554688 93.265625 L 140.992188 93.265625 Z M 136.800781 93.960938 L 137.042969 93.476562 C 136.660156 93.292969 136.214844 93.199219 135.707031 93.199219 C 135.226562 93.199219 134.8125 93.300781 134.457031 93.503906 C 134.101562 93.710938 133.832031 93.996094 133.644531 94.375 C 133.460938 94.75 133.363281 95.1875 133.363281 95.6875 C 133.363281 96.484375 133.558594 97.101562 133.945312 97.539062 C 134.335938 97.96875 134.886719 98.183594 135.605469 98.183594 C 136.097656 98.183594 136.515625 98.125 136.851562 97.996094 L 136.851562 97.503906 C 136.414062 97.625 136.027344 97.683594 135.691406 97.683594 C 135.136719 97.683594 134.714844 97.511719 134.414062 97.164062 C 134.117188 96.820312 133.964844 96.328125 133.964844 95.695312 C 133.964844 95.058594 134.121094 94.589844 134.433594 94.234375 C 134.742188 93.878906 135.164062 93.703125 135.699219 93.703125 C 136.066406 93.703125 136.429688 93.789062 136.800781 93.960938 M 132.648438 97.617188 L 130.5 97.617188 L 130.5 95.835938 L 132.515625 95.835938 L 132.515625 95.335938 L 130.5 95.335938 L 130.5 93.773438 L 132.648438 93.773438 L 132.648438 93.273438 L 129.933594 93.273438 L 129.933594 98.125 L 132.648438 98.125 Z M 128.773438 96.019531 C 128.582031 95.8125 128.226562 95.617188 127.714844 95.433594 C 127.414062 95.328125 127.1875 95.226562 127.039062 95.136719 C 126.894531 95.046875 126.789062 94.945312 126.730469 94.84375 C 126.664062 94.738281 126.636719 94.597656 126.636719 94.429688 C 126.636719 94.199219 126.71875 94.027344 126.890625 93.894531 C 127.054688 93.765625 127.292969 93.703125 127.589844 93.703125 C 127.972656 93.703125 128.359375 93.785156 128.761719 93.957031 L 128.9375 93.464844 C 128.53125 93.289062 128.089844 93.199219 127.605469 93.199219 C 127.125 93.199219 126.769531 93.3125 126.488281 93.53125 C 126.203125 93.753906 126.0625 94.050781 126.0625 94.425781 C 126.0625 94.800781 126.160156 95.070312 126.355469 95.292969 C 126.550781 95.515625 126.875 95.703125 127.324219 95.867188 C 127.648438 95.980469 127.890625 96.082031 128.050781 96.175781 C 128.207031 96.265625 128.320312 96.363281 128.390625 96.472656 C 128.457031 96.582031 128.492188 96.71875 128.492188 96.882812 C 128.492188 97.136719 128.398438 97.335938 128.207031 97.480469 C 128.015625 97.625 127.730469 97.695312 127.355469 97.695312 C 127.125 97.695312 126.894531 97.667969 126.65625 97.621094 C 126.421875 97.570312 126.203125 97.503906 126.007812 97.421875 L 126.007812 97.964844 C 126.316406 98.113281 126.757812 98.1875 127.335938 98.1875 C 127.871094 98.1875 128.292969 98.066406 128.597656 97.832031 C 128.910156 97.589844 129.066406 97.257812 129.066406 96.832031 C 129.066406 96.5 128.972656 96.230469 128.777344 96.023438 M 122.546875 93.765625 L 123.28125 93.765625 C 123.699219 93.765625 124 93.835938 124.195312 93.976562 C 124.386719 94.121094 124.480469 94.347656 124.480469 94.667969 C 124.480469 94.992188 124.390625 95.226562 124.199219 95.382812 C 124.015625 95.539062 123.71875 95.621094 123.324219 95.621094 L 122.546875 95.621094 Z M 123.558594 96.101562 L 124.738281 98.121094 L 125.40625 98.121094 L 124.089844 95.9375 C 124.738281 95.714844 125.066406 95.28125 125.066406 94.636719 C 125.066406 94.183594 124.921875 93.835938 124.636719 93.609375 C 124.351562 93.382812 123.910156 93.265625 123.316406 93.265625 L 121.980469 93.265625 L 121.980469 98.117188 L 122.546875 98.117188 L 122.546875 96.097656 L 123.558594 96.097656 Z M 121.042969 97.617188 L 118.898438 97.617188 L 118.898438 95.835938 L 120.910156 95.835938 L 120.910156 95.335938 L 118.898438 95.335938 L 118.898438 93.773438 L 121.042969 93.773438 L 121.042969 93.273438 L 118.332031 93.273438 L 118.332031 98.125 L 121.042969 98.125 Z M 115.496094 95.824219 C 115.90625 95.824219 116.214844 95.894531 116.417969 96.039062 C 116.625 96.179688 116.722656 96.398438 116.722656 96.703125 C 116.722656 97.027344 116.625 97.261719 116.425781 97.414062 C 116.226562 97.5625 115.933594 97.640625 115.539062 97.640625 L 114.527344 97.640625 L 114.527344 95.828125 L 115.496094 95.828125 Z M 114.523438 93.753906 L 115.355469 93.753906 C 115.78125 93.753906 116.089844 93.816406 116.285156 93.9375 C 116.480469 94.058594 116.578125 94.25 116.578125 94.527344 C 116.578125 94.824219 116.492188 95.035156 116.3125 95.15625 C 116.136719 95.28125 115.851562 95.347656 115.453125 95.347656 L 114.523438 95.347656 Z M 113.957031 98.121094 L 115.65625 98.121094 C 116.183594 98.121094 116.59375 98 116.886719 97.753906 C 117.183594 97.511719 117.328125 97.171875 117.328125 96.742188 C 117.328125 96.09375 116.960938 95.707031 116.222656 95.578125 L 116.222656 95.542969 C 116.53125 95.488281 116.765625 95.367188 116.925781 95.179688 C 117.085938 94.992188 117.164062 94.753906 117.164062 94.46875 C 117.164062 94.050781 117.023438 93.746094 116.738281 93.554688 C 116.449219 93.363281 115.980469 93.269531 115.335938 93.269531 L 113.960938 93.269531 L 113.960938 98.121094 Z M 110.054688 93.269531 L 109.4375 93.269531 L 111.054688 96.265625 L 111.054688 98.121094 L 111.625 98.121094 L 111.625 96.238281 L 113.253906 93.269531 L 112.640625 93.269531 L 111.339844 95.695312 Z M 108.742188 93.960938 L 108.980469 93.476562 C 108.597656 93.292969 108.152344 93.199219 107.644531 93.199219 C 107.167969 93.199219 106.746094 93.300781 106.394531 93.503906 C 106.039062 93.710938 105.769531 93.996094 105.582031 94.375 C 105.394531 94.75 105.300781 95.1875 105.300781 95.6875 C 105.300781 96.484375 105.496094 97.101562 105.882812 97.539062 C 106.269531 97.96875 106.824219 98.183594 107.542969 98.183594 C 108.035156 98.183594 108.453125 98.125 108.785156 97.996094 L 108.785156 97.503906 C 108.355469 97.625 107.96875 97.683594 107.625 97.683594 C 107.074219 97.683594 106.648438 97.511719 106.351562 97.164062 C 106.050781 96.820312 105.90625 96.328125 105.90625 95.695312 C 105.90625 95.058594 106.058594 94.589844 106.371094 94.234375 C 106.679688 93.878906 107.101562 93.703125 107.632812 93.703125 C 108.003906 93.703125 108.375 93.789062 108.738281 93.960938 M 100.136719 93.765625 L 100.871094 93.765625 C 101.292969 93.765625 101.59375 93.835938 101.785156 93.976562 C 101.972656 94.121094 102.070312 94.347656 102.070312 94.667969 C 102.070312 94.992188 101.976562 95.226562 101.789062 95.382812 C 101.605469 95.539062 101.308594 95.621094 100.914062 95.621094 L 100.136719 95.621094 Z M 101.148438 96.101562 L 102.328125 98.121094 L 103 98.121094 L 101.679688 95.9375 C 102.328125 95.714844 102.660156 95.28125 102.660156 94.636719 C 102.660156 94.183594 102.515625 93.835938 102.230469 93.609375 C 101.945312 93.382812 101.503906 93.265625 100.90625 93.265625 L 99.574219 93.265625 L 99.574219 98.117188 L 100.136719 98.117188 L 100.136719 96.097656 L 101.148438 96.097656 Z M 95.09375 94.207031 C 95.375 93.867188 95.785156 93.695312 96.324219 93.695312 C 96.863281 93.695312 97.265625 93.867188 97.539062 94.203125 C 97.8125 94.539062 97.953125 95.035156 97.953125 95.6875 C 97.953125 96.339844 97.816406 96.84375 97.539062 97.183594 C 97.261719 97.523438 96.855469 97.691406 96.320312 97.691406 C 95.777344 97.691406 95.378906 97.519531 95.09375 97.179688 C 94.8125 96.84375 94.675781 96.339844 94.675781 95.683594 C 94.675781 95.027344 94.8125 94.542969 95.09375 94.203125 M 97.960938 93.855469 C 97.566406 93.417969 97.023438 93.191406 96.324219 93.191406 C 95.628906 93.191406 95.050781 93.410156 94.660156 93.84375 C 94.269531 94.28125 94.074219 94.890625 94.074219 95.679688 C 94.074219 96.472656 94.269531 97.09375 94.65625 97.53125 C 95.046875 97.964844 95.597656 98.183594 96.316406 98.183594 C 97.03125 98.183594 97.5625 97.960938 97.957031 97.519531 C 98.351562 97.070312 98.550781 96.460938 98.550781 95.6875 C 98.550781 94.914062 98.355469 94.300781 97.960938 93.855469 M 91.347656 96.042969 L 93.359375 96.042969 L 93.359375 95.542969 L 91.347656 95.542969 L 91.347656 93.769531 L 93.492188 93.769531 L 93.492188 93.269531 L 90.78125 93.269531 L 90.78125 98.121094 L 91.34375 98.121094 L 91.34375 96.042969 Z M 91.347656 96.042969 " fill-opacity="1" fill-rule="nonzero"/><path fill="#9d9c9c" d="M 152.921875 85.007812 L 152.300781 85.007812 L 153.917969 88.007812 L 153.917969 89.859375 L 154.492188 89.859375 L 154.492188 87.980469 L 156.121094 85.011719 L 155.507812 85.011719 L 154.210938 87.433594 L 152.921875 85.011719 Z M 151.609375 85.703125 L 151.84375 85.214844 C 151.464844 85.03125 151.019531 84.9375 150.507812 84.9375 C 150.03125 84.9375 149.613281 85.039062 149.261719 85.242188 C 148.90625 85.449219 148.636719 85.734375 148.449219 86.113281 C 148.261719 86.492188 148.164062 86.925781 148.164062 87.425781 C 148.164062 88.222656 148.359375 88.84375 148.75 89.277344 C 149.136719 89.710938 149.691406 89.921875 150.40625 89.921875 C 150.898438 89.921875 151.320312 89.863281 151.652344 89.734375 L 151.652344 89.242188 C 151.21875 89.363281 150.832031 89.421875 150.492188 89.421875 C 149.941406 89.421875 149.515625 89.25 149.214844 88.90625 C 148.917969 88.558594 148.769531 88.066406 148.769531 87.433594 C 148.769531 86.800781 148.925781 86.328125 149.234375 85.972656 C 149.546875 85.617188 149.96875 85.441406 150.5 85.441406 C 150.867188 85.441406 151.238281 85.527344 151.605469 85.703125 M 147.15625 85.007812 L 146.628906 85.007812 L 146.628906 87.792969 C 146.625 87.929688 146.628906 88.164062 146.644531 88.488281 C 146.65625 88.8125 146.667969 89.003906 146.675781 89.0625 L 146.652344 89.0625 L 144 85.007812 L 143.359375 85.007812 L 143.359375 89.859375 L 143.886719 89.859375 L 143.886719 87.105469 C 143.886719 86.703125 143.867188 86.269531 143.832031 85.789062 L 143.859375 85.789062 L 146.515625 89.859375 L 147.160156 89.859375 L 147.160156 85.007812 Z M 142.421875 89.351562 L 140.277344 89.351562 L 140.277344 87.570312 L 142.289062 87.570312 L 142.289062 87.070312 L 140.277344 87.070312 L 140.277344 85.503906 L 142.421875 85.503906 L 142.421875 85.003906 L 139.710938 85.003906 L 139.710938 89.855469 L 142.421875 89.855469 Z M 136.933594 87.820312 L 138.023438 87.820312 L 138.023438 89.316406 C 137.699219 89.394531 137.371094 89.433594 137.03125 89.433594 C 136.410156 89.433594 135.941406 89.261719 135.621094 88.925781 C 135.300781 88.585938 135.136719 88.09375 135.136719 87.433594 C 135.136719 86.78125 135.308594 86.324219 135.636719 85.972656 C 135.972656 85.621094 136.433594 85.445312 137.027344 85.445312 C 137.433594 85.445312 137.855469 85.539062 138.292969 85.722656 L 138.515625 85.226562 C 138.066406 85.035156 137.582031 84.941406 137.066406 84.941406 C 136.542969 84.941406 136.105469 85.039062 135.71875 85.242188 C 135.339844 85.441406 135.046875 85.730469 134.84375 86.109375 C 134.640625 86.492188 134.542969 86.929688 134.542969 87.433594 C 134.542969 88.222656 134.742188 88.835938 135.152344 89.273438 C 135.5625 89.710938 136.136719 89.925781 136.875 89.925781 C 137.226562 89.925781 137.535156 89.90625 137.796875 89.867188 C 138.0625 89.820312 138.328125 89.761719 138.582031 89.679688 L 138.582031 87.320312 L 136.929688 87.320312 L 136.929688 87.824219 Z M 131.34375 87.8125 L 131.917969 86.304688 C 132.007812 86.054688 132.078125 85.816406 132.128906 85.609375 C 132.203125 85.886719 132.28125 86.117188 132.355469 86.304688 L 132.917969 87.8125 Z M 134.285156 89.859375 L 132.375 84.992188 L 131.902344 84.992188 L 129.976562 89.859375 L 130.550781 89.859375 L 131.148438 88.316406 L 133.097656 88.316406 L 133.703125 89.859375 L 134.289062 89.859375 Z M 127.535156 85.007812 L 127.003906 85.007812 L 127.003906 87.792969 C 127 87.929688 127.003906 88.164062 127.019531 88.488281 C 127.035156 88.8125 127.042969 89.003906 127.050781 89.0625 L 127.027344 89.0625 L 124.375 85.007812 L 123.734375 85.007812 L 123.734375 89.859375 L 124.261719 89.859375 L 124.261719 87.105469 C 124.261719 86.703125 124.242188 86.269531 124.207031 85.789062 L 124.234375 85.789062 L 126.894531 89.859375 L 127.539062 89.859375 L 127.539062 85.007812 Z M 119.257812 85.945312 C 119.535156 85.605469 119.949219 85.433594 120.484375 85.433594 C 121.027344 85.433594 121.429688 85.605469 121.703125 85.941406 C 121.976562 86.285156 122.117188 86.773438 122.117188 87.425781 C 122.117188 88.078125 121.976562 88.582031 121.703125 88.921875 C 121.425781 89.261719 121.019531 89.429688 120.484375 89.429688 C 119.941406 89.429688 119.539062 89.261719 119.261719 88.917969 C 118.976562 88.582031 118.835938 88.082031 118.835938 87.425781 C 118.835938 86.773438 118.976562 86.285156 119.261719 85.945312 M 122.125 85.597656 C 121.730469 85.15625 121.183594 84.929688 120.484375 84.929688 C 119.792969 84.929688 119.214844 85.148438 118.824219 85.585938 C 118.433594 86.019531 118.238281 86.632812 118.238281 87.417969 C 118.238281 88.210938 118.433594 88.832031 118.820312 89.269531 C 119.207031 89.707031 119.761719 89.921875 120.480469 89.921875 C 121.195312 89.921875 121.726562 89.703125 122.121094 89.257812 C 122.515625 88.8125 122.714844 88.203125 122.714844 87.425781 C 122.714844 86.652344 122.519531 86.039062 122.125 85.597656 M 117.207031 85.007812 L 116.644531 85.007812 L 116.644531 89.859375 L 117.207031 89.859375 Z M 115.398438 85.007812 L 114.867188 85.007812 L 114.867188 87.792969 C 114.859375 87.929688 114.867188 88.164062 114.882812 88.488281 C 114.898438 88.8125 114.910156 89.003906 114.914062 89.0625 L 114.886719 89.0625 L 112.234375 85.007812 L 111.597656 85.007812 L 111.597656 89.859375 L 112.121094 89.859375 L 112.121094 87.105469 C 112.121094 86.703125 112.101562 86.269531 112.070312 85.789062 L 112.089844 85.789062 L 114.75 89.859375 L 115.398438 89.859375 Z M 109.820312 85.007812 L 109.820312 88.167969 C 109.820312 88.578125 109.707031 88.890625 109.488281 89.105469 C 109.265625 89.324219 108.949219 89.433594 108.539062 89.433594 C 108.128906 89.433594 107.785156 89.324219 107.5625 89.109375 C 107.339844 88.894531 107.230469 88.582031 107.230469 88.175781 L 107.230469 85.007812 L 106.667969 85.007812 L 106.667969 88.132812 C 106.667969 88.691406 106.828125 89.128906 107.148438 89.449219 C 107.46875 89.765625 107.917969 89.925781 108.503906 89.925781 C 109.089844 89.925781 109.546875 89.769531 109.886719 89.453125 C 110.222656 89.136719 110.390625 88.703125 110.390625 88.148438 L 110.390625 85.007812 Z M 109.820312 85.007812 " fill-opacity="1" fill-rule="nonzero"/><path fill="#9d9c9c" d="M 155.449219 76.75 L 154.921875 76.75 L 154.921875 79.53125 C 154.917969 79.671875 154.921875 79.902344 154.9375 80.226562 C 154.953125 80.550781 154.960938 80.742188 154.964844 80.800781 L 154.941406 80.800781 L 152.289062 76.75 L 151.648438 76.75 L 151.648438 81.597656 L 152.171875 81.597656 L 152.171875 78.84375 C 152.171875 78.445312 152.152344 78.003906 152.121094 77.527344 L 152.144531 77.527344 L 154.804688 81.597656 L 155.445312 81.597656 L 155.445312 76.75 Z M 148.007812 79.546875 L 148.582031 78.042969 C 148.671875 77.789062 148.742188 77.558594 148.792969 77.347656 C 148.871094 77.625 148.945312 77.855469 149.019531 78.042969 L 149.585938 79.546875 Z M 150.949219 81.597656 L 149.035156 76.730469 L 148.554688 76.730469 L 146.636719 81.597656 L 147.207031 81.597656 L 147.808594 80.058594 L 149.757812 80.058594 L 150.363281 81.597656 Z M 146.058594 81.09375 L 143.914062 81.09375 L 143.914062 79.3125 L 145.929688 79.3125 L 145.929688 78.8125 L 143.914062 78.8125 L 143.914062 77.253906 L 146.058594 77.253906 L 146.058594 76.753906 L 143.34375 76.753906 L 143.34375 81.601562 L 146.058594 81.601562 Z M 139.953125 77.234375 L 140.585938 77.234375 C 141.03125 77.234375 141.363281 77.3125 141.570312 77.46875 C 141.777344 77.628906 141.882812 77.867188 141.882812 78.183594 C 141.882812 78.542969 141.773438 78.800781 141.550781 78.964844 C 141.328125 79.121094 140.964844 79.203125 140.460938 79.203125 L 139.953125 79.203125 L 139.953125 77.230469 Z M 140.648438 76.75 L 139.386719 76.75 L 139.386719 81.597656 L 139.949219 81.597656 L 139.949219 79.691406 L 140.523438 79.691406 C 141.152344 79.691406 141.632812 79.558594 141.96875 79.296875 C 142.300781 79.035156 142.46875 78.652344 142.46875 78.167969 C 142.46875 77.222656 141.863281 76.753906 140.648438 76.753906 M 134.910156 77.683594 C 135.191406 77.347656 135.601562 77.175781 136.140625 77.175781 C 136.679688 77.175781 137.085938 77.34375 137.355469 77.679688 C 137.628906 78.023438 137.769531 78.515625 137.769531 79.167969 C 137.769531 79.816406 137.632812 80.324219 137.355469 80.664062 C 137.082031 81 136.675781 81.171875 136.132812 81.171875 C 135.59375 81.171875 135.191406 81 134.914062 80.660156 C 134.636719 80.320312 134.492188 79.820312 134.492188 79.167969 C 134.492188 78.511719 134.632812 78.027344 134.914062 77.683594 M 137.777344 77.335938 C 137.382812 76.894531 136.839844 76.671875 136.140625 76.671875 C 135.4375 76.671875 134.867188 76.886719 134.476562 77.324219 C 134.085938 77.761719 133.890625 78.375 133.890625 79.160156 C 133.890625 79.949219 134.085938 80.574219 134.472656 81.007812 C 134.859375 81.445312 135.417969 81.664062 136.128906 81.664062 C 136.847656 81.664062 137.378906 81.441406 137.773438 80.996094 C 138.167969 80.550781 138.363281 79.941406 138.363281 79.167969 C 138.363281 78.390625 138.167969 77.777344 137.773438 77.335938 M 130.605469 77.246094 L 131.335938 77.246094 C 131.757812 77.246094 132.0625 77.3125 132.253906 77.457031 C 132.441406 77.597656 132.539062 77.832031 132.539062 78.148438 C 132.539062 78.46875 132.445312 78.703125 132.257812 78.863281 C 132.074219 79.019531 131.777344 79.097656 131.382812 79.097656 L 130.605469 79.097656 Z M 131.617188 79.582031 L 132.792969 81.59375 L 133.464844 81.59375 L 132.144531 79.417969 C 132.792969 79.191406 133.125 78.757812 133.125 78.113281 C 133.125 77.660156 132.984375 77.3125 132.695312 77.085938 C 132.410156 76.859375 131.972656 76.746094 131.371094 76.746094 L 130.039062 76.746094 L 130.039062 81.59375 L 130.605469 81.59375 L 130.605469 79.582031 Z M 128.261719 76.75 L 128.261719 79.90625 C 128.261719 80.316406 128.148438 80.628906 127.925781 80.84375 C 127.707031 81.066406 127.390625 81.175781 126.980469 81.175781 C 126.546875 81.175781 126.222656 81.066406 126.003906 80.847656 C 125.777344 80.632812 125.667969 80.320312 125.667969 79.914062 L 125.667969 76.75 L 125.101562 76.75 L 125.101562 79.875 C 125.101562 80.429688 125.265625 80.871094 125.582031 81.191406 C 125.902344 81.503906 126.359375 81.664062 126.941406 81.664062 C 127.523438 81.664062 127.988281 81.503906 128.320312 81.191406 C 128.65625 80.878906 128.824219 80.441406 128.824219 79.886719 L 128.824219 76.75 Z M 124.21875 81.09375 L 122.074219 81.09375 L 122.074219 79.3125 L 124.089844 79.3125 L 124.089844 78.8125 L 122.074219 78.8125 L 122.074219 77.253906 L 124.21875 77.253906 L 124.21875 76.753906 L 121.507812 76.753906 L 121.507812 81.601562 L 124.21875 81.601562 Z M 124.21875 81.09375 " fill-opacity="1" fill-rule="nonzero"/></svg>