<svg id="Calque_1" data-name="Calque 1" xmlns="http://www.w3.org/2000/svg" viewBox="0 0 588.71 177"><defs><style>.cls-1{fill:#004577;}.cls-2{fill:none;stroke:#004577;stroke-width:3.81px;}.cls-3{fill:#fff;}.cls-4{fill:#b2b1b1;}</style></defs><title>logo-cen-cenelec</title><g id="layer"><path class="cls-1" d="M208.81,111.43c-.2,0-.2-.26-.26-.32a4.79,4.79,0,0,1-2-1.73c-.13-.26-.46-.13-.62-.33.59.1.95-.42.56-.81a3.9,3.9,0,0,0-2.45-1,1.08,1.08,0,0,1-.42-.33.52.52,0,0,0,.45-.16c.33-.33.2-.85.43-1.21.09-.13.42,0,.52-.29-.39-.13-.91.16-1.24-.26.33-.17.68-.75.78-.72a115.22,115.22,0,0,0-14.51.26V10.9H27V157.17c-11.39,5.38-19.32,9.52-22,11.25,2.9-.23,5.06-1.34,7.67-2.41,4.76-2,2.31-.85,7.4-2.61L27,161.25V174h163.1V115.35a72.21,72.21,0,0,0,8.41-.16c2.64-.2-.59-.2,2.15-.69,1-.19,3.5,1.47,2.71,1-1.76-1.18,1.24-1.08,3.3-.82,1.14.13-2.68-1.83-1.54-1.73.95.07,1.9-.36,2.74-.13.53.17,1.24.39,1.6.13.59-.45.23-1.4-.65-1.47" transform="translate(-3.97 -4)"/><path class="cls-2" d="M208.81,111.43c-.2,0-.2-.26-.26-.32a4.79,4.79,0,0,1-2-1.73c-.13-.26-.46-.13-.62-.33.59.1.95-.42.56-.81a3.9,3.9,0,0,0-2.45-1,1.08,1.08,0,0,1-.42-.33.52.52,0,0,0,.45-.16c.33-.33.2-.85.43-1.21.09-.13.42,0,.52-.29-.39-.13-.91.16-1.24-.26.33-.17.68-.75.78-.72a115.22,115.22,0,0,0-14.51.26V10.9H27V157.17c-11.39,5.38-19.32,9.52-22,11.25,2.9-.23,5.06-1.34,7.67-2.41,4.76-2,2.31-.85,7.4-2.61L27,161.25V174h163.1V115.35a72.21,72.21,0,0,0,8.41-.16c2.64-.2-.59-.2,2.15-.69,1-.19,3.5,1.47,2.71,1-1.76-1.18,1.24-1.08,3.3-.82,1.14.13-2.68-1.83-1.54-1.73.95.07,1.9-.36,2.74-.13.53.17,1.24.39,1.6.13C210.05,112.45,209.69,111.5,208.81,111.43Z" transform="translate(-3.97 -4)"/><path class="cls-3" d="M50.05,89.94c-31.41,0-31.58-56.27,4.24-56.27l25.61,0V45.9H55.66c-22.51.65-23.72,30.89-1.5,31.87H79.9V90Z" transform="translate(-3.97 -4)"/><path class="cls-3" d="M190.48,61.66c0-35.82-56.27-35.69-56.27-4.24V77.77l-30.53,0c-6.89-.16-9.76-1.37-12.43-8A4.41,4.41,0,0,1,91,68.57l40,0c.94-29.94-17.55-35-28.15-35-14.55,0-26.56,13.18-26.56,28.94C76.27,75.29,87.85,90,103.64,90h42.77l0-28.44c2.06-21.27,30.27-20.78,31.8,1.5l0,26.94h12.2ZM91,55.17c4-12,18.4-9.86,21.79-3.82a16.17,16.17,0,0,1,2.19,6.23l-24.47,0Z" transform="translate(-3.97 -4)"/><path class="cls-3" d="M28.75,157c5.74-2.9,18.26-5.38,24.49-7.92,1.44-.75,8-4.05,9.6-4.93.65-.36,1.46-.42,2-1,.16-.19.42.36.52.43.58.22.88-.59,1.37-.89,0,.2.23.3.16.49a.85.85,0,0,1,1,.07c.26.16.45-.2.62-.36s.09-.75.45-.88.88,0,1.27-.23a.61.61,0,0,0,.33-.68c1.18,0,1-.92,2.09-1.15a24.27,24.27,0,0,0,2.8-.16,3.56,3.56,0,0,1,.79-.1c.81-.19,1.27-1.4,2.08-1.66a9.56,9.56,0,0,0,2.42-.62,9.27,9.27,0,0,1,1.69-.49c.27-.1.53-.23.79-.33s.58,0,.88-.13.81-.48,1.24-.68a2.83,2.83,0,0,1,.78-.1c0,.1.07.2.13.16.91-.22,7.28-3,8.16-3.29.49-.16,16.7-5.38,17.74-5.94.65-.36,2.35-.42,3.07-.81a4.8,4.8,0,0,1,1.66-.43,12.19,12.19,0,0,0,1.4-.42c-2.38.62-1.46.68,2.35-.52.49-.17,1,0,1.67-.2a14.42,14.42,0,0,0,4.27-1.66,18.26,18.26,0,0,1,2.19-.62,14,14,0,0,1,2.28-.72c.26,0,3.2-.91,6.49-1.56.16,0,1.34-.56,1.53-.66.82-.36.36.07,1.18-.49.55-.36,1.82,0,2.54-.06.13,0,.78-.1.91-.13.92-.2,1,0,1.9,0a7.35,7.35,0,0,0,2.64-.49c2.64-.78,4.63-.82,7.31-1.44,2.12-.49,3.71-.32,5.61-.94,3-1,1.17-.07,4.47-1,2.28-.65,4.66-1,6.94-1.5s4.83-1.66,8.65-1.86c.45,0,3.29-.45,3.75-.52,1.83-.16,4.73.46,6.49.59a65.77,65.77,0,0,0,8.74-.16c2.65-.2-.58-.2,2.19-.69,1-.2,3.49,1.47,2.71.95-1.77-1.18,1.24-1.08,3.29-.82,1.14.13-2.67-1.79-1.53-1.73.94.07,1.89-.36,2.74-.13.52.13,1.24.39,1.6.1.52-.42.16-1.37-.69-1.44-.19,0-.19-.26-.26-.32a4.79,4.79,0,0,1-2-1.73c-.13-.26-.45-.13-.62-.33.59.1,1-.42.56-.81a3.9,3.9,0,0,0-2.45-1c-.16,0-.29-.2-.46-.33a.56.56,0,0,0,.46-.16c.33-.33.2-.85.42-1.21.1-.13.43,0,.53-.29-.39-.13-.92.16-1.24-.26.36-.17.68-.75.78-.75C143.11,97,18.8,156.25,6.53,164.25c2.91-.23,5.06-1.31,7.67-2.42,4.76-2,2.35-.85,7.4-2.61Z" transform="translate(-3.97 -4)"/></g><polygon class="cls-4" points="376.96 95.25 353.91 40.93 304.32 177 353.12 80.29 375.84 137.08 424.98 0 376.96 95.25"/><polygon class="cls-1" points="339.74 172.61 339.74 47.34 376.4 96.48 388.32 8.43 388.54 133.93 351.55 83.33 339.74 172.61"/><path class="cls-1" d="M266.68,83.05v-10c0-6-1-9.23-7.43-9.23s-6.74,5.07-6.74,8.66v42.29c0,4.72.78,9,7.31,9,6.86,0,6.86-5,6.86-9.67V103.86h14.39V115c0,6.41,0,20.13-21.48,20.13-4.16,0-10.68-.79-15.29-3.82-6.3-4.16-6.3-10.24-6.3-14.62v-43c0-6.41.34-10.68,3.94-14.62,5.73-6.18,14.61-6.3,17.65-6.3,21.48,0,21.48,12.71,21.48,18.33V83.28H266.68Z" transform="translate(-3.97 -4)"/><polygon class="cls-1" points="289.92 50.04 328.16 50.04 328.16 62.19 304.43 62.19 304.43 80.74 326.69 80.74 326.69 92.66 304.43 92.66 304.43 116.95 329.17 116.95 329.17 129.09 289.92 129.09 289.92 50.04"/><polygon class="cls-1" points="401.36 50.04 439.6 50.04 439.6 62.19 415.87 62.19 415.87 80.74 438.14 80.74 438.14 92.66 415.87 92.66 415.87 116.95 440.61 116.95 440.61 129.09 401.36 129.09 401.36 50.04"/><polygon class="cls-1" points="452.64 50.15 467.04 50.15 467.04 117.17 488.51 117.17 488.51 129.09 452.64 129.09 452.64 50.15"/><polygon class="cls-1" points="495.6 50.04 533.83 50.04 533.83 62.19 510.22 62.19 510.22 80.74 532.37 80.74 532.37 92.66 510.22 92.66 510.22 116.95 534.85 116.95 534.85 129.09 495.6 129.09 495.6 50.04"/><path class="cls-1" d="M578.28,83.05v-10c0-6-1-9.23-7.42-9.23s-6.75,5.07-6.75,8.66v42.29c0,4.72.79,9,7.31,9,6.86,0,6.86-5,6.86-9.67V103.86h14.39V115c0,6.41,0,20.13-21.47,20.13-4.16,0-10.69-.79-15.3-3.82-6.29-4.16-6.29-10.24-6.29-14.62v-43c0-6.41.33-10.68,3.93-14.62,5.74-6.18,14.62-6.3,17.66-6.3,21.47,0,21.47,12.71,21.47,18.33V83.28H578.28Z" transform="translate(-3.97 -4)"/></svg>