<svg class="footer__copy-logo" xmlns="http://www.w3.org/2000/svg" viewBox="0 0 65 33" fill="none"><path fill="currentColor" d="M7.53 13.095C4.945 9.15 2.576 6.678 2.576 3.947c0-1.994 1.008-3.22 2.588-3.22 2.323 0 4.252 3.514 4.778 9.744h.734V.433H9.94l-.965 1.91C7.926.91 6.521 0 5.163 0 2.488.001.339 2.624.339 7.263c0 4.9 2.149 8.205 4.691 12.021 2.763 4.117 4.385 7.18 4.385 9.652 0 1.95-1.184 3.048-2.762 3.048-2.893 0-5.48-3.86-5.744-11.302H0v12.114h.91l1.183-2.306C3.583 32.224 4.986 33 6.828 33c3.157 0 5.394-3.124 5.394-8.196 0-4.076-1.886-7.503-4.691-11.709m51.9 19.038c-2.544 0-4.852-3.143-5.55-8.682h6.514c1.16 2.078 1.8 3.926 1.8 5.477 0 1.951-1.184 3.206-2.764 3.206m-23.353-9.72V5.898l7.23 16.514h-7.23zm-1.225 4.6c0 3.076-.014 4.572-2.208 4.572h-1.388l-1.43-8.133h5.026zm-15.504-4.6 2.744-16.062 2.656 16.062zm40.96-9.318c-2.586-3.945-4.953-6.417-4.953-9.148 0-1.994 1.007-3.22 2.585-3.22 2.325 0 4.254 3.514 4.78 9.744h.659V.433h-.66l-.964 1.91C60.703.91 59.3 0 57.94 0c-2.674 0-4.822 2.623-4.822 7.262 0 4.899 2.148 8.3 4.691 12.117.708 1.055 1.341 2.167 1.89 3.033h-5.94c-.033-.692-.056-.866-.071-1.731h-.984v1.73h-4.201V5.032c0-2.731.175-3.73 2.45-3.685V.433h-6.825v.913c2.1 0 2.976 1.258 2.976 4.119v14.352L39.308.433h-6.382V1.3h1.924v21.113h-5.238L25.773.433h-3.859L16.57 27.12c-.527 2.687-.442 4.054-3.068 4.445v.886h7.175v-.886c-1.924-.044-2.448-.565-2.448-1.952 0-.607.047-1.13.09-1.519l.793-4.643h5.875l1.316 8.134h-2.475v.866h15.926v-.886c-2.45-.174-3.676-1.562-3.676-4.813V23.45h7.736l3.784 9h.906v-9h4.201v9.345h.984l1.184-2.307C56.362 32.225 57.765 33 59.607 33 62.763 33 65 29.876 65 24.804c0-4.076-1.886-7.503-4.691-11.709z"></path></svg>