<svg width="1024" height="1024" viewBox="0 0 1024 1024" fill="none" xmlns="http://www.w3.org/2000/svg">
<path d="M1.75977 1022.24H1022.23V1.75977H1.75977V1022.23V1022.24Z" fill="#E3000F"/>
<path d="M781.5 703.46C765.08 726.89 745.78 748.13 724.09 766.66C690.78 757.36 653.17 750.3 613.24 745.75C617.7 732.38 621.76 718.21 625.38 703.46H603.49C599.82 717.72 595.81 731.15 591.49 743.53C563.18 740.99 533.96 739.65 504.44 739.65C474.92 739.65 448.44 740.83 421.65 743.08C417.38 730.83 413.43 717.55 409.82 703.46H387.92C391.51 718 395.48 731.98 399.9 745.17C359.86 749.53 322.2 756.44 288.14 765.74C266.87 747.43 247.95 726.49 231.8 703.46H206C269.59 802.64 380.6 868.53 506.65 868.53C632.7 868.53 743.72 802.65 807.31 703.46H781.51H781.5ZM309.71 782.39C339.71 775.11 372.88 769.56 407.71 765.94C420.83 799.54 438.06 827.16 455.09 844.5C402.05 835.93 351.37 813.01 309.71 782.39ZM506.64 848.7C479.68 848.7 451.76 816.85 429.84 763.93C454.21 762 479.23 760.99 504.44 760.99C531.16 760.99 557.62 762.14 583.31 764.27C561.39 816.98 533.57 848.7 506.64 848.7ZM558.21 844.5C575.18 827.22 592.34 799.75 605.42 766.37C639.97 770.12 672.77 775.78 702.47 783.2C661.06 813.37 610.78 835.99 558.21 844.5Z" fill="white"/>
<path d="M778.61 351.18C679.88 351.18 609.32 408.59 609.32 511.36C609.32 614.13 679.87 671.56 778.61 671.56C877.35 671.56 947.87 614.15 947.87 511.36C947.87 408.57 877.3 351.18 778.61 351.18ZM777.74 598.77C738.72 598.77 713.94 573.92 713.94 511.36C713.94 448.8 738.71 423.97 777.74 423.97C816.77 423.97 841.5 448.84 841.5 511.36C841.5 573.88 816.73 598.77 777.74 598.77Z" fill="white"/>
<path d="M438.13 605C476.88 605 492.62 596.23 492.62 580.47C492.62 529.3 295.53 588.92 295.53 452.13C295.53 382.61 354.4 351.17 440.32 351.17C461.18 351.17 482 353.36 509.43 356.64H584.01V449.57H509.43V429.8C498.46 423.96 472.51 417.72 445.45 417.72C410.69 417.72 397.17 427.98 397.17 441.14C397.17 495.62 596.08 433.09 596.08 569.16C596.08 625.47 558.41 671.54 445.44 671.54C424.58 671.54 399.74 669.37 372.31 666.05H297.71V573.16H372.31V592.92C383.28 598.77 408.87 604.99 438.12 604.99" fill="white"/>
<path d="M76.1299 589.92H126.22V434.11H76.1299V357.28H275.4V434.11H225.3V589.92H275.4V666.7H76.1299V589.92Z" fill="white"/>
<path d="M506.64 155.47C380.59 155.47 269.58 221.34 205.99 320.53H231.79C248.21 297.14 267.51 275.89 289.19 257.33C322.53 266.64 360.13 273.69 400.06 278.26C395.59 291.64 391.52 305.78 387.91 320.53H409.81C413.47 306.27 417.47 292.84 421.82 280.47C450.1 283.01 479.34 284.36 508.86 284.36C538.38 284.36 564.85 283.17 591.65 280.91C595.9 293.16 599.85 306.44 603.46 320.53H625.37C621.78 306.02 617.82 292.01 613.41 278.85C653.44 274.48 691.08 267.56 725.13 258.26C746.41 276.57 765.34 297.51 781.49 320.53H807.29C743.7 221.34 632.69 155.47 506.63 155.47H506.64ZM407.87 257.62C373.31 253.87 340.53 248.21 310.81 240.81C352.23 210.61 402.51 188 455.09 179.49C438.12 196.77 420.95 224.26 407.87 257.62ZM508.85 263C482.12 263 455.67 261.85 429.97 259.73C451.89 207.02 479.71 175.3 506.63 175.3C533.55 175.3 561.52 207.15 583.45 260.07C559.07 261.99 534.05 262.98 508.85 263ZM605.59 258.05C592.45 224.47 575.24 196.86 558.19 179.47C611.22 188.06 661.91 210.98 703.57 241.61C673.57 248.89 640.42 254.44 605.59 258.05Z" fill="white"/>
</svg>
