<svg width="3685" height="1033" viewBox="0 0 3685 1033" fill="none" xmlns="http://www.w3.org/2000/svg">
<g clip-path="url(#clip0_93_88)">
<path d="M3088.63 0H3685V167.417H3280.9V432.791H3681.44V600.209H3280.9V865.583H3685V1033H3088.63V0Z" fill="#0B2338"/>
<path d="M2506.51 1033H2314.25V0H2773.54C2805.02 2.04283 2836.12 8.02627 2866.11 17.8103C2915.56 34.6207 2959.75 64.095 2994.28 103.3C3037.01 147.826 3060.15 211.943 3060.15 297.433C3060.15 382.922 3035.23 450.602 2988.94 495.128C2951.11 535.903 2903.23 566.001 2850.09 582.398C2815.88 592.675 2780.67 599.243 2745.06 601.99L3088.63 1033H2855.43L2540.34 607.333V420.324H2743.28C2772.53 419.05 2800.6 408.439 2823.39 390.047C2837.53 379.173 2848.93 365.128 2856.66 349.042C2864.39 332.956 2868.24 315.278 2867.89 297.433C2868.56 280.756 2865.55 264.137 2859.09 248.75C2852.63 233.362 2842.87 219.581 2830.51 208.381C2803.55 184.723 2768.4 172.574 2732.6 174.541H2506.51V1033Z" fill="#0B2338"/>
<path d="M1603.95 0V167.417H1831.82V1033H2024.08V167.417H2250.16V0H1603.95Z" fill="#0B2338"/>
<path d="M1541.65 0H1347.61V1033H1541.65V0Z" fill="#0B2338"/>
<path d="M897.217 0L646.21 644.734L393.423 0H194.041L0 1033H206.502L329.336 386.484L567.882 1033H722.758L961.304 386.484L1084.14 1033H1295.98L1096.6 0H897.217Z" fill="#0B2338"/>
</g>
<defs>
<clipPath id="clip0_93_88">
<rect width="3685" height="1033" fill="white"/>
</clipPath>
</defs>
</svg>
