<svg width="3092" height="829" viewBox="0 0 3092 829" fill="none" xmlns="http://www.w3.org/2000/svg">
<path d="M168.899 822.657H0V172.571C0 172.571 0 49.4269 123.096 9.33347C234.742 -25.0323 309.172 46.5631 309.172 46.5631L864.536 647.964C893.163 665.147 904.614 647.964 904.614 630.781V9.33347H1076.38V656.555C1076.38 710.968 1030.57 779.7 964.73 805.474C898.888 831.248 827.321 831.248 741.44 759.653L220.428 192.618C206.114 178.299 171.762 175.435 168.899 204.073V822.657Z" fill="black"/>
<path d="M1185.16 9.33301H1354.06V593.551C1354.06 656.555 1405.59 656.555 1457.11 656.555H2212.87C2244.36 656.555 2278.71 619.325 2278.71 582.096C2278.71 542.002 2241.49 504.773 2207.14 504.773H1717.62C1634.6 507.637 1457.11 430.314 1457.11 264.212C1457.11 60.8817 1623.15 17.9245 1700.44 12.1968H3091.72V184.026H2742.47V828.384H2573.57V181.162H1723.35C1643.19 175.434 1583.07 312.897 1717.62 332.944H2241.49C2321.65 332.944 2450.47 401.676 2450.47 570.641C2450.47 742.469 2350.28 822.656 2241.49 822.656H1468.57C1339.74 822.656 1293.94 794.018 1251 751.061C1208.06 710.967 1202.33 688.057 1188.02 602.143L1185.16 9.33301Z" fill="black"/>
</svg>
