<svg width="1025" height="428" viewBox="0 0 1025 428" fill="none" xmlns="http://www.w3.org/2000/svg">
<g clip-path="url(#clip0_94_127)">
<path d="M254.131 33.2695C282.185 33.2696 299.693 52.8157 299.693 83.9316C299.693 84.9477 299.693 87.3269 299.528 90.0498H233.901C234.587 103.654 242.573 111.475 255.493 111.475C263.987 111.474 269.775 107.735 272.495 100.424H299.528C293.743 120.479 277.937 131.362 254.982 131.362C226.08 131.362 207.72 111.985 207.72 81.7178C207.72 52.8158 226.425 33.2695 254.131 33.2695ZM143.027 47.042C149.664 38.7131 159.354 33.7804 169.209 33.7803C178.392 33.7803 187.739 37.8612 193.182 44.1562C198.622 50.4372 200.658 57.7495 200.658 72.0312V128.642H175.162V74.751C175.162 59.62 171.081 53.667 160.371 53.667C148.647 53.6671 143.027 63.1922 143.027 83.0801V128.642H117.531V0.792969H143.027V47.042ZM110.475 0.795898V23.2422H69.1582V128.632H42.3008V23.2422H0.819336V0.795898H110.475ZM253.966 52.4844C242.738 52.4844 235.77 58.9445 233.736 71.5205H273.346C272.837 60.1276 265.183 52.4844 253.966 52.4844Z" fill="black"/>
<path d="M976.028 182.076C987.077 182.076 994.899 186.159 1001.87 195.849V184.289H1024.82V257.725C1024.82 276.087 1024.65 278.632 1022.95 285.269C1018.19 303.121 1004.42 312.125 982.145 312.125C958.175 312.125 942.877 301.076 941.173 282.382H966.504C967.025 289.515 973.305 294.106 982.485 294.106C995.239 294.106 1000.85 286.794 1000.85 269.973V260.281C994.05 269.451 986.571 273.202 974.668 273.202C952.222 273.202 937.268 255.169 937.268 227.97C937.268 201.112 953.253 182.076 976.028 182.076ZM379.912 181.565C393.339 181.566 404.046 185.306 410.851 192.272C417.818 199.077 419.852 206.389 419.852 223.554C419.852 225.591 419.852 229.672 419.687 236.474V245.147C419.687 259.935 420.373 269.117 422.244 276.938H400.309C399.623 271.84 399.457 269.967 399.457 266.396V262.656C392.653 274.049 383.307 278.972 368.353 278.972C348.451 278.972 334.68 267.414 334.68 250.921C334.68 236.819 343.353 227.636 361.041 223.389C369.37 221.178 384.5 218.964 395.718 218.278C395.552 205.192 390.961 199.584 380.419 199.584C370.221 199.584 364.944 204.175 364.436 213.356H338.254C339.448 193.468 355.088 181.565 379.912 181.565ZM668.323 238.686C668.323 246.672 668.833 249.737 670.536 252.798C673.08 257.048 677.672 259.424 683.112 259.424C688.721 259.424 693.822 256.538 696.884 251.44C699.442 247.358 700.28 242.259 700.28 232.226V184.286H725.789V276.937H701.477V265.377C695.361 274.05 685.67 278.97 674.442 278.97C662.883 278.97 653.193 274.05 647.584 265.212C643.847 259.259 642.827 253.308 642.827 236.816V184.286H668.323V238.686ZM831.601 276.938H806.104V184.285H831.601V276.938ZM249.528 149.087L294.074 276.937H266.023L255.658 245.311H207.541L197.341 276.937H169.976L214.343 149.087H249.528ZM325.436 276.937H299.939V149.087H325.436V276.937ZM788.677 182.073C791.565 182.073 793.09 182.238 795.468 183.09V205.191C792.748 204.515 791.055 204.339 788.334 204.339C770.991 204.339 764.187 213.189 764.187 235.965V276.937H738.69V184.286H763.005V196.353C767.927 187.173 777.107 182.073 788.677 182.073ZM663.041 171.531H621.728V276.936H594.87V171.531H553.389V149.086H663.041V171.531ZM483.728 182.249C495.451 182.249 504.977 187.168 510.585 196.007C514.325 201.957 515.342 207.91 515.342 224.402V276.932H489.846V222.534C489.846 214.547 489.336 211.482 487.633 208.417C485.089 204.349 480.498 201.792 475.057 201.792C463.319 201.792 457.89 210.465 457.89 228.994V276.932H432.38V184.283H456.694V195.841C462.644 187.168 472.334 182.249 483.728 182.249ZM897.227 182.249C908.951 182.249 918.476 187.168 924.085 196.007C927.825 201.957 928.842 207.91 928.842 224.402V276.932H903.346V222.534C903.346 214.547 902.836 211.482 901.133 208.417C898.589 204.349 893.997 201.792 888.557 201.792C876.819 201.792 871.389 210.465 871.389 228.994V276.932H845.88V184.283H870.193V195.841C876.144 187.168 885.834 182.249 897.227 182.249ZM395.718 234.771C393.849 235.116 392.652 235.28 392.321 235.456L383.472 236.818C367.501 239.362 361.206 242.934 361.206 250.08C361.206 256.364 366.991 260.952 375.144 260.952C388.24 260.952 395.718 251.428 395.718 234.771ZM981.813 202.309C970.928 202.309 963.449 212.671 963.449 227.804C963.449 243.279 970.586 253.3 981.635 253.3C992.69 253.3 1000.16 243.445 1000.16 228.656C1000.16 212.506 993.029 202.309 981.813 202.309ZM214.508 222.37H248.347L231.51 169.319L214.508 222.37ZM831.601 173.566H806.104V149.088H831.601V173.566Z" fill="black"/>
<path d="M192.373 329.825C217.194 329.825 231.641 341.891 231.476 362.123H206.486C205.979 352.091 201.718 348.187 191.355 348.187C183.369 348.187 178.601 351.581 178.601 357.19C178.601 361.272 181.666 363.826 188.633 365.698L206.997 370.452C225.36 375.209 233.688 383.714 233.688 397.83C233.688 416.357 218.048 427.918 192.883 427.918C166.367 427.918 151.236 415.849 150.892 394.256H176.908C176.731 404.111 182.341 409.213 193.059 409.213C201.553 409.213 207.161 405.638 207.161 400.209C207.161 394.421 202.569 391.359 189.994 388.65C172.992 385.076 166.877 382.697 161.092 377.422C155.991 372.83 153.105 366.029 153.104 359.238C153.104 341.384 168.404 329.825 192.373 329.825ZM597.261 329.822C625.315 329.822 642.823 349.368 642.823 380.484C642.823 381.501 642.823 383.88 642.658 386.603H577.031C577.717 400.206 585.702 408.028 598.623 408.028C607.117 408.028 612.902 404.29 615.625 396.977H642.658C636.873 417.031 621.067 427.915 598.112 427.915C569.21 427.915 550.849 408.537 550.849 378.273C550.849 349.368 569.552 329.822 597.261 329.822ZM274.964 332.543H289.918V351.758H274.964V393.235C274.964 403.27 277.673 407.173 284.654 407.173C285.837 407.173 286.854 407.008 289.918 406.666V425.701C285.162 426.897 282.441 427.239 277.164 427.239C265.784 427.239 258.803 424.174 254.046 417.028C250.474 411.764 249.454 406.5 249.454 394.256V351.758H235.862V332.543H249.454V310.1H274.964V332.543ZM373.479 332.543H388.433V351.758H373.479V393.235C373.479 403.27 376.188 407.173 383.169 407.173C384.351 407.173 385.368 407.008 388.433 406.666V425.701C383.676 426.897 380.956 427.239 375.678 427.239C364.298 427.239 357.317 424.174 352.56 417.028C348.989 411.764 347.969 406.5 347.969 394.256V351.758H334.376V332.543H347.969V310.1H373.479V332.543ZM530.348 332.543H545.303V351.758H530.348V393.235C530.348 403.27 533.058 407.173 540.039 407.173C541.221 407.173 542.238 407.008 545.303 406.666V425.701C540.546 426.897 537.826 427.239 532.548 427.239C521.168 427.239 514.187 424.174 509.43 417.028C505.858 411.764 504.839 406.5 504.839 394.256V351.758H491.246V332.543H504.839V310.1H530.348V332.543ZM425.129 386.945C425.129 394.932 425.639 397.997 427.342 401.061C429.886 405.308 434.478 407.684 439.918 407.684C445.527 407.684 450.624 404.799 453.689 399.7C456.246 395.618 457.085 390.52 457.085 380.485V332.546H482.595V425.196H458.281V413.637C452.163 422.31 442.476 427.229 431.247 427.229C419.689 427.229 409.998 422.31 404.39 413.472C400.65 407.519 399.633 401.568 399.633 385.076V332.546H425.129V386.945ZM50.249 297.347V425.196H24.7666V297.347H50.249ZM325.519 425.196H300.009V332.532H325.519V425.196ZM112.476 330.509C124.2 330.509 133.725 335.428 139.334 344.267C143.074 350.22 144.091 356.17 144.091 372.662V425.191H118.594V370.794C118.594 362.807 118.085 359.742 116.381 356.68C113.838 352.609 109.246 350.055 103.806 350.055C92.0678 350.055 86.6377 358.725 86.6377 377.254V425.191H61.1279V332.543H85.4424V344.102C91.3923 335.428 101.083 330.509 112.476 330.509ZM597.096 349.037C585.868 349.037 578.899 355.497 576.865 368.073H616.476C615.966 356.68 608.313 349.037 597.096 349.037ZM325.519 321.822H300.009V297.347H325.519V321.822Z" fill="black"/>
</g>
<defs>
<clipPath id="clip0_94_127">
<rect width="1025" height="428" fill="white"/>
</clipPath>
</defs>
</svg>
